<?xml version="1.0" encoding="UTF-8"?>
<svg xmlns="http://www.w3.org/2000/svg" xmlns:xlink="http://www.w3.org/1999/xlink" viewBox="0 0 466.02 231.56">
  <defs>
    <style>
      .cls-1 {
        fill: #8b8b8b;
      }

      .cls-2 {
        fill: url(#linear-gradient-3);
      }

      .cls-2, .cls-3, .cls-4, .cls-5, .cls-6 {
        mix-blend-mode: multiply;
      }

      .cls-2, .cls-3, .cls-5 {
        opacity: .5;
      }

      .cls-3 {
        fill: url(#linear-gradient);
      }

      .cls-7 {
        fill: #f5f5f5;
      }

      .cls-8 {
        isolation: isolate;
      }

      .cls-4 {
        fill: url(#linear-gradient-4);
      }

      .cls-4, .cls-6 {
        opacity: .9;
      }

      .cls-9 {
        mix-blend-mode: hard-light;
        opacity: .3;
      }

      .cls-10 {
        fill: none;
      }

      .cls-5 {
        fill: url(#linear-gradient-5);
      }

      .cls-6 {
        fill: url(#linear-gradient-2);
      }
    </style>
    <linearGradient id="linear-gradient" x1="1433.27" y1="-2849.91" x2="1618.9" y2="-2779.86" gradientTransform="translate(-2235.58 -1703.44) rotate(94.87)" gradientUnits="userSpaceOnUse">
      <stop offset="0" stop-color="#fff"/>
      <stop offset=".05" stop-color="#d1d1d1"/>
      <stop offset=".12" stop-color="#9a9a9a"/>
      <stop offset=".19" stop-color="#6b6b6b"/>
      <stop offset=".26" stop-color="#444"/>
      <stop offset=".33" stop-color="#262626"/>
      <stop offset=".4" stop-color="#111"/>
      <stop offset=".47" stop-color="#040404"/>
      <stop offset=".53" stop-color="#000"/>
      <stop offset="1" stop-color="#fff"/>
    </linearGradient>
    <linearGradient id="linear-gradient-2" x1="1442.88" y1="-2812.91" x2="1567.22" y2="-2761.54" xlink:href="#linear-gradient"/>
    <linearGradient id="linear-gradient-3" x1="1564.81" y1="-2740.06" x2="1722.41" y2="-2660.67" xlink:href="#linear-gradient"/>
    <linearGradient id="linear-gradient-4" x1="1563.36" y1="-2641.1" x2="1702.28" y2="-2601.41" xlink:href="#linear-gradient"/>
    <linearGradient id="linear-gradient-5" x1="1692.74" y1="-2551.89" x2="1919.23" y2="-2479.51" xlink:href="#linear-gradient"/>
  </defs>
  <g class="cls-8">
    <g id="Calque_2" data-name="Calque 2">
      <g id="Layer_1" data-name="Layer 1">
        <g class="cls-9">
          <g>
            <path d="M419.05,80.02c-8.5,2.51-16.98,2.6-24.16-.89l-16.39-7.97c7.18,3.49,15.66,3.4,24.16,.89l16.39,7.97"/>
            <path class="cls-7" d="M445.54,64.46c-7.69,7.07-17.1,12.78-26.49,15.55l-16.39-7.97c9.39-2.77,18.8-8.48,26.49-15.55l16.39,7.97"/>
            <path d="M465.57,39.39c-5.06,7.96-10.54,15.43-16.76,21.88-1.05,1.09-2.14,2.16-3.27,3.19l-16.39-7.97c1.13-1.04,2.22-2.1,3.27-3.19,6.21-6.45,11.7-13.92,16.76-21.88l16.39,7.97"/>
            <path class="cls-7" d="M466.02,2.34l-.35-.17c-5.22,9.88-10.56,19.91-16.49,29.25l16.39,7.97c.15-.24,.3-.48,.45-.72V2.34Z"/>
            <path class="cls-7" d="M435.73,88.13c-8.5,2.51-16.98,2.6-24.16-.89l-16.68-8.11c7.18,3.49,15.66,3.4,24.16,.89l16.68,8.11"/>
            <path d="M445.54,64.46c-7.69,7.07-17.1,12.78-26.49,15.55l16.68,8.11c9.39-2.77,18.8-8.48,26.49-15.55l-16.68-8.11"/>
            <path class="cls-7" d="M466.02,39.61l-.45-.22c-5.06,7.96-10.54,15.43-16.76,21.88-1.05,1.09-2.14,2.16-3.27,3.19l16.68,8.11c1.13-1.04,2.22-2.1,3.27-3.19,.18-.18,.35-.37,.52-.56v-29.22Z"/>
            <path d="M452.41,96.25c-8.5,2.51-16.98,2.6-24.16-.89l-16.68-8.11c7.18,3.49,15.66,3.4,24.16,.89l16.68,8.11"/>
            <path class="cls-7" d="M466.02,74.42l-3.79-1.84h0c-7.69,7.07-17.1,12.78-26.49,15.55l16.68,8.11c4.6-1.36,9.2-3.42,13.6-6v-15.82Z"/>
            <path d="M466.02,68.83c-.17,.18-.34,.38-.52,.56-1.05,1.09-2.14,2.16-3.27,3.19l3.79,1.84v-5.6Z"/>
            <path class="cls-7" d="M466.02,102.86l-13.6-6.62c-8.5,2.51-16.98,2.6-24.16-.89l16.69,8.12c6.31,3.07,13.63,3.37,21.08,1.69v-2.3Z"/>
            <path d="M466.02,90.24c-4.4,2.58-9.01,4.65-13.6,6l13.6,6.62v-12.62Z"/>
            <path d="M466.02,105.16c-7.45,1.67-14.76,1.38-21.08-1.69l16.68,8.11c1.47,.7,2.94,1.23,4.4,1.63v-8.05Z"/>
            <path class="cls-7" d="M466.02,113.18c-1.79-.51-3.24-1.11-4.4-1.59l4.4,2.14v-.55Z"/>
          </g>
          <path class="cls-10" d="M466.02,1.51c-9.78,18.52-19.94,37.6-33.59,51.78-14.68,15.24-37.64,25.77-53.92,17.85l87.52,42.58V1.51Z"/>
          <path class="cls-3" d="M466.02,1.51c-9.78,18.52-19.94,37.6-33.59,51.78-14.68,15.24-37.64,25.77-53.92,17.85l87.52,42.58V1.51Z"/>
          <g>
            <path d="M392.08,79.35l2.3,1.26-16.39-7.97c-.78-.38-1.55-.8-2.3-1.26l16.39,7.97"/>
            <path class="cls-7" d="M375.96,57.58c3.42,8.15,7.61,15.53,13.96,20.3,.7,.53,1.42,1.02,2.16,1.47l-16.39-7.97c-.73-.45-1.45-.94-2.16-1.47-6.35-4.77-10.54-12.15-13.96-20.3l16.39,7.97"/>
            <path d="M365.2,29.34c2.18,4.76,4.05,10.03,5.95,15.4,1.53,4.31,3.07,8.68,4.82,12.84l-16.39-7.97c-1.75-4.16-3.29-8.53-4.82-12.84-1.9-5.37-3.77-10.64-5.95-15.4l16.39,7.97"/>
            <path class="cls-7" d="M350.37,11.73c6.82,3.32,11.24,9.78,14.82,17.6l-16.39-7.97c-3.58-7.83-8.01-14.29-14.82-17.6,4.92,2.39,11.48,5.58,16.39,7.97"/>
            <path class="cls-7" d="M408.76,87.46c.75,.46,1.52,.88,2.3,1.26l-16.68-8.11-2.3-1.26,16.68,8.11"/>
            <path d="M375.96,57.58c3.42,8.15,7.61,15.53,13.96,20.3,.7,.53,1.42,1.02,2.16,1.47l16.68,8.11c-.73-.45-1.45-.94-2.16-1.47-6.35-4.77-10.54-12.15-13.96-20.3l-16.68-8.11"/>
            <path class="cls-7" d="M365.2,29.34c2.18,4.76,4.05,10.03,5.95,15.4,1.53,4.31,3.07,8.68,4.82,12.84l16.68,8.11c-1.75-4.16-3.29-8.53-4.82-12.84-1.9-5.37-3.77-10.64-5.95-15.4l-16.68-8.11"/>
            <path d="M367.05,19.85c5.5,2.98,9.89,6.97,14.82,17.6l-16.68-8.11c-3.58-7.83-8.01-14.29-14.82-17.6l16.68,8.11"/>
            <path d="M425.44,95.57c.75,.46,1.52,.88,2.3,1.26l-16.68-8.11c-.78-.38-1.55-.8-2.3-1.26l16.68,8.11"/>
            <path class="cls-7" d="M392.64,65.69c3.42,8.15,7.61,15.53,13.96,20.3,.7,.53,1.42,1.02,2.16,1.47l16.68,8.11c-.73-.45-1.45-.94-2.16-1.47-6.35-4.77-10.54-12.15-13.96-20.3l-16.68-8.11"/>
            <path d="M381.88,37.45c2.18,4.76,4.05,10.03,5.95,15.4,1.53,4.31,3.07,8.68,4.82,12.84l16.68,8.11c-1.75-4.16-3.29-8.53-4.82-12.84-1.9-5.37-3.77-10.64-5.95-15.4l-16.68-8.11"/>
            <path class="cls-7" d="M383.73,27.96c6.82,3.32,11.24,9.78,14.82,17.6l-16.68-8.11c-3.79-7.98-7.77-14.03-14.82-17.6l16.68,8.11"/>
            <path class="cls-7" d="M442.13,103.69c.75,.46,1.52,.88,2.3,1.26l-16.69-8.12c-.78-.38-1.55-.8-2.3-1.26l16.69,8.12"/>
            <path d="M409.32,73.81c3.42,8.15,7.61,15.53,13.96,20.3,.7,.53,1.42,1.02,2.16,1.47l16.69,8.12c-.73-.45-1.45-.94-2.16-1.47-6.35-4.77-10.54-12.15-13.96-20.3l-16.69-8.12"/>
            <path class="cls-7" d="M398.56,45.57c2.18,4.76,4.05,10.03,5.95,15.4,1.53,4.31,3.07,8.68,4.82,12.84l16.69,8.12c-1.75-4.16-3.29-8.53-4.82-12.84-1.9-5.37-3.77-10.64-5.95-15.4l-16.69-8.12"/>
            <path d="M400.42,36.08c6.82,3.32,11.24,9.78,14.82,17.6l-16.69-8.12c-3.58-7.83-8.01-14.29-14.82-17.6l16.69,8.12"/>
            <path d="M458.81,111.81c.75,.46,1.52,.88,2.3,1.26l-16.68-8.11c-.78-.38-1.55-.8-2.3-1.26l16.68,8.11"/>
            <path class="cls-7" d="M426.01,81.93c3.42,8.15,7.61,15.53,13.96,20.3,.7,.53,1.42,1.02,2.16,1.47l16.68,8.11c-.73-.45-1.45-.94-2.16-1.47-6.35-4.77-10.54-12.15-13.96-20.3l-16.68-8.11"/>
            <path d="M415.25,53.68c2.18,4.76,4.05,10.03,5.95,15.4,1.53,4.31,3.07,8.68,4.82,12.84l16.68,8.11c-1.75-4.16-3.29-8.53-4.82-12.84-1.9-5.37-3.77-10.64-5.95-15.4l-16.68-8.11"/>
            <path class="cls-7" d="M417.1,44.19c6.82,3.32,11.24,9.78,14.82,17.6l-16.68-8.11c-3.58-7.83-8.01-14.29-14.82-17.6l16.68,8.11"/>
            <path class="cls-7" d="M466.02,115.31l-7.21-3.51c.75,.46,1.52,.88,2.3,1.26l4.91,2.39v-.14Z"/>
            <path d="M466.02,110.69c-2.61-3.73-4.75-8.02-6.64-12.54l-16.68-8.11c3.42,8.15,7.61,15.53,13.96,20.3,.7,.53,1.42,1.02,2.16,1.47l7.21,3.51v-4.62Z"/>
            <path class="cls-7" d="M431.93,61.8c2.18,4.76,4.05,10.03,5.95,15.4,1.53,4.31,3.07,8.68,4.82,12.84l16.68,8.11c-1.75-4.16-3.29-8.53-4.82-12.84-1.9-5.37-3.77-10.64-5.95-15.4l-16.68-8.11"/>
            <path d="M433.78,52.31c6.82,3.32,11.24,9.78,14.82,17.6l-16.68-8.11c-3.58-7.83-8.01-14.29-14.82-17.6l16.68,8.11"/>
            <path class="cls-7" d="M466.02,101.39l-6.64-3.23c1.9,4.52,4.03,8.8,6.64,12.54v-9.31Z"/>
            <path d="M466.02,79.71c-.24-.56-.48-1.14-.73-1.69l-16.68-8.11c2.18,4.76,4.05,10.03,5.95,15.4,1.53,4.31,3.07,8.68,4.82,12.84l6.64,3.23v-21.67Z"/>
            <path class="cls-7" d="M450.46,60.42c6.82,3.32,11.24,9.78,14.82,17.6l-16.68-8.11c-3.58-7.83-8.01-14.29-14.82-17.6l16.68,8.11"/>
            <path d="M466.02,67.99l-15.55-7.57c6.82,3.32,11.24,9.78,14.82,17.6l.73,.35v-10.39Z"/>
          </g>
          <path class="cls-10" d="M466.02,67.99L333.98,3.76c10.96,5.33,15.74,18.81,20.77,33.01,4.51,12.75,9.19,25.94,18.78,33.14,1.43,1.07,2.91,1.98,4.45,2.73l88.03,42.83v-47.47Z"/>
          <path class="cls-6" d="M466.02,67.99L333.98,3.76c3,1.46,5.54,3.53,7.74,6.06,5.85,6.71,9.37,16.64,13.03,26.95,3.7,10.47,7.52,21.23,14.07,28.73,1.43,1.64,2.99,3.12,4.71,4.41,1.43,1.07,2.91,1.98,4.45,2.73l88.03,42.83v-47.47Z"/>
          <g>
            <path class="cls-7" d="M184.51,146.99c-8.13,2.28-16.72,2.53-24.1-1.06l-16.39-7.97c7.38,3.59,15.97,3.34,24.1,1.06l16.39,7.97"/>
            <path d="M206.13,135.91c-1.96,1.45-3.93,2.78-6.01,4.08-4.63,2.9-10.01,5.43-15.61,7l-16.39-7.97c5.6-1.57,10.98-4.1,15.61-7,2.08-1.3,4.05-2.63,6.01-4.08l16.39,7.97"/>
            <path class="cls-7" d="M222.19,121.28c-6.28,6.58-11.14,10.98-16.07,14.63l-16.39-7.97c4.93-3.65,9.79-8.06,16.07-14.63l16.39,7.97"/>
            <path d="M246.83,93.62c-10.64,12.33-18.35,21.08-24.63,27.66l-16.39-7.97c6.28-6.58,13.99-15.32,24.63-27.66l16.39,7.97"/>
            <path class="cls-7" d="M274.54,61.35c-3.58,4.17-6.95,8.1-10.13,11.8-6.65,7.76-12.46,14.53-17.58,20.47l-16.39-7.97c5.12-5.94,10.93-12.71,17.58-20.47,3.18-3.7,6.55-7.63,10.13-11.8l16.39,7.97"/>
            <path d="M296.58,35.93c-2.01,2.19-3.93,4.37-5.75,6.48-5.88,6.82-11.3,13.12-16.3,18.95l-16.39-7.97c5-5.82,10.42-12.12,16.3-18.95,1.81-2.11,3.73-4.29,5.75-6.48l16.39,7.97"/>
            <path class="cls-7" d="M321.14,14.45c-8.83,5.43-17.28,13.54-24.56,21.48l-16.39-7.97c7.27-7.93,15.73-16.05,24.56-21.48,4.92,2.39,11.48,5.58,16.39,7.97"/>
            <path d="M347.93,9.09c-.11-.04-.22-.07-.34-.1-8.66-2.63-17.74,.11-26.45,5.47-4.92-2.39-11.48-5.58-16.39-7.97,8.71-5.36,17.79-8.1,26.45-5.47,.11,.03,.22,.07,.34,.1l16.39,7.97"/>
            <path class="cls-7" d="M350.97,10.31c-.9-.39-2.11-.9-3.04-1.22l-16.39-7.97c1.06,.34,2.08,.75,3.04,1.22l16.39,7.97"/>
            <path d="M201.19,155.11c-8.13,2.28-16.72,2.53-24.1-1.06l-16.68-8.11c7.38,3.59,15.97,3.34,24.1,1.06l16.68,8.11"/>
            <path class="cls-7" d="M206.13,135.91c-1.96,1.45-3.93,2.78-6.01,4.08-4.63,2.9-10.01,5.43-15.61,7l16.68,8.11c5.6-1.57,10.98-4.1,15.61-7,2.08-1.3,4.05-2.63,6.01-4.08l-16.68-8.11"/>
            <path d="M222.19,121.28c-6.28,6.58-11.14,10.98-16.07,14.63l16.68,8.11c4.93-3.65,9.79-8.06,16.07-14.63l-16.68-8.11"/>
            <path class="cls-7" d="M246.83,93.62c-10.64,12.33-18.35,21.08-24.63,27.66l16.68,8.11c6.28-6.58,13.99-15.32,24.63-27.66l-16.68-8.11"/>
            <path d="M274.54,61.35c-3.58,4.17-6.95,8.1-10.13,11.8-6.65,7.76-12.46,14.53-17.58,20.47l16.68,8.11c5.12-5.94,10.93-12.71,17.58-20.47,3.18-3.7,6.55-7.63,10.13-11.8l-16.68-8.11"/>
            <path class="cls-7" d="M296.58,35.93c-2.01,2.19-3.93,4.37-5.75,6.48-5.88,6.82-11.3,13.12-16.3,18.95l16.68,8.11c5-5.82,10.42-12.12,16.3-18.95,1.81-2.11,3.73-4.28,5.75-6.48l-16.68-8.11"/>
            <path d="M321.14,14.45c-8.83,5.43-17.28,13.54-24.56,21.48l16.68,8.11c7.27-7.93,15.73-16.05,24.56-21.48l-16.68-8.11"/>
            <path class="cls-7" d="M347.93,9.09c-.11-.04-.22-.07-.34-.1-8.66-2.63-17.74,.11-26.45,5.47l16.68,8.11c8.71-5.36,17.79-8.1,26.45-5.47,.11,.03,.22,.07,.34,.1l-16.68-8.11"/>
            <path d="M367.65,18.43c-.9-.39-2.11-.9-3.04-1.22l-16.68-8.11c.92,.34,2.15,.81,3.04,1.22l16.68,8.11"/>
            <path class="cls-7" d="M217.87,163.22c-8.13,2.28-16.72,2.53-24.1-1.06l-16.68-8.11c7.38,3.59,15.97,3.34,24.1,1.06l16.68,8.11"/>
            <path d="M222.81,144.03c-1.96,1.45-3.93,2.78-6.01,4.08-4.63,2.9-10.01,5.43-15.61,7l16.68,8.11c5.6-1.57,10.98-4.1,15.61-7,2.08-1.3,4.05-2.63,6.01-4.08l-16.68-8.11"/>
            <path class="cls-7" d="M238.87,129.39c-6.28,6.58-11.14,10.98-16.07,14.63l16.68,8.11c4.93-3.65,9.79-8.06,16.07-14.63l-16.68-8.11"/>
            <path d="M263.51,101.74c-10.64,12.33-18.35,21.08-24.63,27.66l16.68,8.11c6.28-6.58,13.99-15.32,24.63-27.66l-16.68-8.11"/>
            <path class="cls-7" d="M291.22,69.47c-3.58,4.17-6.95,8.1-10.13,11.8-6.65,7.76-12.46,14.53-17.58,20.47l16.68,8.11c5.12-5.94,10.93-12.71,17.58-20.47,3.18-3.7,6.55-7.63,10.13-11.8l-16.68-8.11"/>
            <path d="M313.26,44.04c-2.01,2.19-3.93,4.37-5.75,6.48-5.88,6.82-11.3,13.12-16.3,18.95l16.68,8.11c5-5.82,10.42-12.12,16.3-18.95,1.81-2.11,3.73-4.28,5.75-6.48l-16.68-8.11"/>
            <path class="cls-7" d="M337.82,22.57c-8.83,5.43-17.28,13.54-24.56,21.48l16.68,8.11c7.27-7.93,15.73-16.05,24.56-21.48l-16.68-8.11"/>
            <path d="M364.61,17.21c-.11-.04-.22-.07-.34-.1-8.66-2.63-17.74,.11-26.45,5.47l16.68,8.11c8.71-5.36,17.79-8.1,26.45-5.47,.11,.03,.22,.07,.34,.1l-16.68-8.11"/>
            <path class="cls-7" d="M384.33,26.54c-.97-.47-1.98-.88-3.04-1.22l-16.68-8.11c.92,.34,2.15,.81,3.04,1.22l16.68,8.11"/>
            <path d="M234.56,171.34c-8.13,2.28-16.72,2.53-24.1-1.06l-16.69-8.12c7.38,3.59,15.97,3.34,24.1,1.06l16.69,8.12"/>
            <path class="cls-7" d="M239.49,152.14c-1.96,1.45-3.93,2.78-6.01,4.08-4.63,2.9-10.01,5.43-15.61,7l16.69,8.12c5.6-1.57,10.98-4.1,15.61-7,2.08-1.3,4.05-2.63,6.01-4.08l-16.69-8.12"/>
            <path d="M255.55,137.51c-6.28,6.58-11.14,10.98-16.07,14.63l16.69,8.12c4.93-3.65,9.79-8.06,16.07-14.63l-16.69-8.12"/>
            <path class="cls-7" d="M280.19,109.85c-10.64,12.33-18.35,21.08-24.63,27.66l16.69,8.12c6.28-6.58,13.99-15.32,24.63-27.66l-16.69-8.12"/>
            <path d="M307.9,77.58c-3.58,4.17-6.95,8.1-10.13,11.8-6.65,7.76-12.46,14.53-17.58,20.47l16.69,8.12c5.12-5.94,10.93-12.71,17.58-20.47,3.18-3.7,6.55-7.63,10.13-11.8l-16.69-8.12"/>
            <path class="cls-7" d="M329.94,52.16c-2.01,2.19-3.93,4.37-5.75,6.48-5.88,6.82-11.3,13.12-16.3,18.95l16.69,8.12c5-5.82,10.42-12.12,16.3-18.95,1.81-2.11,3.73-4.28,5.75-6.48l-16.69-8.12"/>
            <path d="M354.5,30.68c-8.83,5.43-17.28,13.54-24.56,21.48l16.69,8.12c7.27-7.93,15.73-16.05,24.56-21.48l-16.69-8.12"/>
            <path class="cls-7" d="M381.29,25.32c-.11-.04-.22-.07-.34-.1-8.66-2.63-17.74,.11-26.45,5.47l16.69,8.12c8.71-5.36,17.79-8.1,26.45-5.47,.11,.03,.22,.07,.34,.1l-16.69-8.12"/>
            <path d="M401.02,34.66c-.97-.47-1.98-.88-3.04-1.22l-16.69-8.12c1.06,.34,2.08,.75,3.04,1.22l16.69,8.12"/>
            <path class="cls-7" d="M251.24,179.45c-8.13,2.28-16.72,2.53-24.1-1.06l-16.68-8.11c7.38,3.59,15.97,3.34,24.1,1.06l16.68,8.11"/>
            <path d="M256.18,160.26c-1.96,1.45-3.93,2.78-6.01,4.08-4.63,2.9-10.01,5.43-15.61,7l16.68,8.11c5.6-1.57,10.98-4.1,15.61-7,2.08-1.3,4.05-2.63,6.01-4.08l-16.68-8.11"/>
            <path class="cls-7" d="M272.24,145.63c-6.28,6.58-11.14,10.98-16.07,14.63l16.68,8.11c4.93-3.65,9.79-8.06,16.07-14.63l-16.68-8.11"/>
            <path d="M296.88,117.97c-10.64,12.33-18.35,21.08-24.63,27.66l16.68,8.11c6.28-6.58,13.99-15.32,24.63-27.66l-16.68-8.11"/>
            <path class="cls-7" d="M324.59,85.7c-3.58,4.17-6.95,8.1-10.13,11.8-6.65,7.76-12.46,14.53-17.58,20.47l16.68,8.11c5.12-5.94,10.93-12.71,17.58-20.47,3.18-3.7,6.55-7.63,10.13-11.8l-16.68-8.11"/>
            <path d="M346.63,60.28c-2.01,2.19-3.93,4.37-5.75,6.48-5.88,6.82-11.3,13.12-16.3,18.95l16.68,8.11c5-5.82,10.42-12.12,16.3-18.95,1.81-2.11,3.73-4.28,5.75-6.48l-16.68-8.11"/>
            <path class="cls-7" d="M371.19,38.8c-8.83,5.43-17.28,13.54-24.56,21.48l16.68,8.11c7.27-7.93,15.73-16.05,24.56-21.48l-16.68-8.11"/>
            <path d="M397.98,33.44c-.11-.04-.22-.07-.34-.1-8.66-2.63-17.74,.11-26.45,5.47l16.68,8.11c8.71-5.36,17.79-8.1,26.45-5.47,.11,.03,.22,.07,.34,.1l-16.68-8.11"/>
            <path class="cls-7" d="M417.7,42.77c-.97-.47-1.98-.88-3.04-1.22l-16.68-8.11c1.06,.34,2.08,.75,3.04,1.22l16.68,8.11"/>
            <path d="M267.92,187.57c-8.13,2.28-16.72,2.53-24.1-1.06l-16.68-8.11c7.38,3.59,15.97,3.34,24.1,1.06l16.68,8.11"/>
            <path class="cls-7" d="M272.86,168.37c-1.96,1.45-3.93,2.78-6.01,4.08-4.63,2.9-10.01,5.43-15.61,7l16.68,8.11c5.6-1.57,10.98-4.1,15.61-7,2.08-1.3,4.05-2.63,6.01-4.08l-16.68-8.11"/>
            <path d="M288.92,153.74c-6.28,6.58-11.14,10.98-16.07,14.63l16.68,8.11c4.93-3.65,9.79-8.06,16.07-14.63l-16.68-8.11"/>
            <path class="cls-7" d="M313.56,126.08c-10.64,12.33-18.35,21.08-24.63,27.66l16.68,8.11c6.28-6.58,13.99-15.32,24.63-27.66l-16.68-8.11"/>
            <path d="M341.27,93.82c-3.58,4.17-6.95,8.1-10.13,11.8-6.65,7.76-12.46,14.53-17.58,20.47l16.68,8.11c5.12-5.94,10.93-12.71,17.58-20.47,3.18-3.7,6.55-7.63,10.13-11.8l-16.68-8.11"/>
            <path class="cls-7" d="M363.31,68.39c-2.01,2.19-3.93,4.37-5.75,6.48-5.88,6.82-11.3,13.12-16.3,18.95l16.68,8.11c5-5.82,10.42-12.12,16.3-18.95,1.81-2.11,3.73-4.28,5.75-6.48l-16.68-8.11"/>
            <path d="M387.87,46.92c-8.83,5.43-17.28,13.54-24.56,21.48l16.68,8.11c7.27-7.93,15.73-16.05,24.56-21.48l-16.68-8.11"/>
            <path class="cls-7" d="M414.66,41.55c-.11-.04-.22-.07-.34-.1-8.66-2.63-17.74,.11-26.45,5.47l16.68,8.11c8.71-5.36,17.79-8.1,26.45-5.47,.11,.03,.22,.07,.34,.1l-16.68-8.11"/>
            <path d="M434.38,50.89c-.97-.47-1.98-.88-3.04-1.22l-16.68-8.11c1.06,.34,2.08,.75,3.04,1.22l16.68,8.11"/>
            <path class="cls-7" d="M284.6,195.68c-8.13,2.28-16.72,2.53-24.1-1.06l-16.68-8.11c7.38,3.59,15.97,3.34,24.1,1.06l16.68,8.11"/>
            <path d="M289.54,176.49c-1.96,1.45-3.93,2.78-6.01,4.08-4.63,2.9-10.01,5.43-15.61,7l16.68,8.11c5.6-1.57,10.98-4.1,15.61-7,2.08-1.3,4.05-2.63,6.01-4.08l-16.68-8.11"/>
            <path class="cls-7" d="M305.6,161.86c-6.28,6.58-11.14,10.98-16.07,14.63l16.68,8.11c4.93-3.65,9.79-8.06,16.07-14.63l-16.68-8.11"/>
            <path d="M330.24,134.2c-10.64,12.33-18.35,21.08-24.63,27.66l16.68,8.11c6.28-6.58,13.99-15.32,24.63-27.66l-16.68-8.11"/>
            <path class="cls-7" d="M357.95,101.93c-3.58,4.17-6.95,8.1-10.13,11.8-6.65,7.76-12.46,14.53-17.58,20.47l16.68,8.11c5.12-5.94,10.93-12.71,17.58-20.47,3.18-3.7,6.55-7.63,10.13-11.8l-16.68-8.11"/>
            <path d="M379.99,76.51c-2.01,2.19-3.93,4.37-5.75,6.48-5.88,6.82-11.3,13.12-16.3,18.95l16.68,8.11c5-5.82,10.42-12.12,16.3-18.95,1.81-2.11,3.73-4.29,5.75-6.48l-16.68-8.11"/>
            <path class="cls-7" d="M404.55,55.03c-8.83,5.43-17.28,13.54-24.56,21.48l16.68,8.11c7.27-7.93,15.73-16.05,24.56-21.48l-16.68-8.11"/>
            <path d="M431.34,49.67c-.11-.04-.22-.07-.34-.1-8.66-2.63-17.74,.11-26.45,5.47l16.68,8.11c8.71-5.36,17.79-8.1,26.45-5.47,.11,.03,.22,.07,.34,.1l-16.68-8.11"/>
            <path class="cls-7" d="M451.06,59c-.97-.47-1.98-.88-3.04-1.22l-16.68-8.11c1.06,.34,2.08,.75,3.04,1.22l16.68,8.11"/>
            <path d="M301.28,203.8c-9.89,2.52-16.64,2.23-24.1-1.06l-16.68-8.11c7.38,3.59,15.97,3.34,24.1,1.06l16.68,8.11"/>
            <path class="cls-7" d="M306.22,184.6c-1.96,1.45-3.93,2.78-6.01,4.08-4.63,2.9-10.01,5.43-15.61,7l16.68,8.11c5.6-1.57,10.98-4.1,15.61-7,2.08-1.3,4.05-2.63,6.01-4.08l-16.68-8.11"/>
            <path d="M322.28,169.97c-6.28,6.58-11.14,10.98-16.07,14.63l16.68,8.11c4.93-3.65,9.79-8.06,16.07-14.63l-16.68-8.11"/>
            <path class="cls-7" d="M346.92,142.31c-10.64,12.33-18.35,21.08-24.63,27.66l16.68,8.11c6.28-6.58,13.99-15.32,24.63-27.66l-16.68-8.11"/>
            <path d="M374.63,110.05c-3.58,4.17-6.95,8.1-10.13,11.8-6.65,7.76-12.46,14.53-17.58,20.47l16.68,8.11c5.12-5.94,10.93-12.71,17.58-20.47,3.18-3.7,6.55-7.63,10.13-11.8l-16.68-8.11"/>
            <path class="cls-7" d="M396.67,84.62c-2.01,2.19-3.93,4.37-5.75,6.48-5.88,6.82-11.3,13.12-16.3,18.95l16.68,8.11c5-5.82,10.42-12.12,16.3-18.95,1.81-2.11,3.73-4.28,5.75-6.48l-16.68-8.11"/>
            <path d="M421.23,63.14c-8.83,5.43-17.28,13.54-24.56,21.48l16.68,8.11c7.27-7.93,15.73-16.05,24.56-21.48l-16.68-8.11"/>
            <path class="cls-7" d="M448.02,57.78c-.11-.04-.22-.07-.34-.1-8.66-2.63-17.74,.11-26.45,5.47l16.68,8.11c8.71-5.36,17.79-8.1,26.45-5.47,.11,.03,.22,.07,.34,.1l-16.68-8.11"/>
            <path d="M466.02,66.28l-14.95-7.28c-.97-.47-1.98-.88-3.04-1.22l16.68,8.11c.4,.14,.86,.32,1.32,.5v-.12Z"/>
            <path class="cls-7" d="M317.97,211.92c-8.13,2.28-16.72,2.53-24.1-1.06l-16.69-8.12c7.6,3.29,14.36,3.59,24.1,1.06l16.69,8.12"/>
            <path d="M322.9,192.72c-1.96,1.45-3.93,2.78-6.01,4.08-4.63,2.9-10.01,5.43-15.61,7l16.69,8.12c5.6-1.57,10.98-4.1,15.61-7,2.08-1.3,4.05-2.63,6.01-4.08l-16.69-8.12"/>
            <path class="cls-7" d="M338.97,178.08c-6.28,6.58-11.14,10.98-16.07,14.63l16.69,8.12c4.93-3.65,9.79-8.06,16.07-14.63l-16.69-8.12"/>
            <path d="M363.6,150.43c-10.64,12.33-18.35,21.08-24.63,27.66l16.69,8.12c6.28-6.58,13.99-15.32,24.63-27.66l-16.69-8.12"/>
            <path class="cls-7" d="M391.31,118.16c-3.58,4.17-6.95,8.1-10.13,11.8-6.65,7.76-12.46,14.53-17.58,20.47l16.69,8.12c5.12-5.94,10.93-12.71,17.58-20.47,3.18-3.7,6.55-7.63,10.13-11.8l-16.69-8.12"/>
            <path d="M413.35,92.74c-2.01,2.19-3.93,4.37-5.75,6.48-5.88,6.82-11.3,13.12-16.3,18.95l16.69,8.12c5-5.82,10.42-12.12,16.3-18.95,1.81-2.11,3.73-4.28,5.75-6.48l-16.69-8.12"/>
            <path class="cls-7" d="M437.91,71.26c-8.83,5.43-17.28,13.54-24.56,21.48l16.69,8.12c7.27-7.93,15.73-16.05,24.56-21.48l-16.69-8.12"/>
            <path d="M466.02,66.54l-1.32-.64h0c-.11-.04-.22-.07-.34-.1-8.66-2.63-17.74,.11-26.45,5.47l16.69,8.12c3.76-2.31,7.58-4.13,11.41-5.25v-7.59Z"/>
            <path d="M334.65,220.03c-8.13,2.28-16.72,2.53-24.1-1.06l-16.68-8.11c7.38,3.59,15.97,3.34,24.1,1.06l16.68,8.11"/>
            <path class="cls-7" d="M339.59,200.84c-1.96,1.45-3.93,2.78-6.01,4.08-4.63,2.9-10.01,5.43-15.61,7l16.68,8.11c5.6-1.57,10.98-4.1,15.61-7,2.08-1.3,4.05-2.63,6.01-4.08l-16.68-8.11"/>
            <path d="M355.65,186.2c-6.28,6.58-11.14,10.98-16.07,14.63l16.68,8.11c4.93-3.65,9.79-8.06,16.07-14.63l-16.68-8.11"/>
            <path class="cls-7" d="M380.29,158.55c-10.64,12.33-18.35,21.08-24.63,27.66l16.68,8.11c6.28-6.58,13.99-15.32,24.63-27.66l-16.68-8.11"/>
            <path d="M408,126.28c-3.58,4.17-6.95,8.1-10.13,11.8-6.65,7.76-12.46,14.53-17.58,20.47l16.68,8.11c5.12-5.94,10.93-12.71,17.58-20.47,3.18-3.7,6.55-7.63,10.13-11.8l-16.68-8.11"/>
            <path class="cls-7" d="M430.04,100.85c-2.01,2.19-3.93,4.37-5.75,6.48-5.88,6.82-11.3,13.12-16.3,18.95l16.68,8.11c5-5.82,10.42-12.12,16.3-18.95,1.81-2.11,3.73-4.29,5.75-6.48l-16.68-8.11"/>
            <path d="M466.02,84.93l-11.41-5.55c-8.83,5.43-17.28,13.54-24.56,21.48l16.68,8.11c5.81-6.34,12.38-12.79,19.29-17.9v-6.14Z"/>
            <path class="cls-7" d="M466.02,74.13c-3.83,1.12-7.66,2.94-11.41,5.25l11.41,5.55v-10.8Z"/>
            <path class="cls-7" d="M351.33,228.15c-8.13,2.28-16.72,2.53-24.1-1.06l-16.68-8.11c7.38,3.59,15.97,3.34,24.1,1.06l16.68,8.11"/>
            <path d="M356.27,208.95c-1.96,1.45-3.93,2.78-6.01,4.08-4.63,2.9-10.01,5.43-15.61,7l16.68,8.11c5.6-1.57,10.98-4.1,15.61-7,2.08-1.3,4.05-2.63,6.01-4.08l-16.68-8.11"/>
            <path class="cls-7" d="M372.33,194.32c-6.28,6.58-11.14,10.98-16.07,14.63l16.68,8.11c4.93-3.65,9.79-8.06,16.07-14.63l-16.68-8.11"/>
            <path d="M396.97,166.66c-10.64,12.33-18.35,21.08-24.63,27.66l16.68,8.11c6.28-6.58,13.99-15.32,24.63-27.66l-16.68-8.11"/>
            <path class="cls-7" d="M424.68,134.39c-3.58,4.17-6.95,8.1-10.13,11.8-6.65,7.76-12.46,14.53-17.58,20.47l16.68,8.11c5.12-5.94,10.93-12.71,17.58-20.47,3.18-3.7,6.55-7.63,10.13-11.8l-16.68-8.11"/>
            <path d="M446.72,108.97c-2.01,2.19-3.93,4.37-5.75,6.48-5.88,6.82-11.3,13.12-16.3,18.95l16.68,8.11c5-5.82,10.42-12.12,16.3-18.95,1.81-2.11,3.73-4.28,5.75-6.48l-16.68-8.11"/>
            <path class="cls-7" d="M466.02,91.07c-6.91,5.11-13.48,11.56-19.29,17.9l16.68,8.11c.85-.93,1.73-1.87,2.61-2.8v-23.22Z"/>
            <path d="M358.34,231.56l-7.02-3.41c-8.13,2.28-16.72,2.53-24.1-1.06l9.2,4.48h21.92Z"/>
            <path class="cls-7" d="M379.63,231.56c1.38-.73,2.72-1.5,3.99-2.3,2.08-1.3,4.05-2.63,6.01-4.08l-16.68-8.11h0c-1.96,1.45-3.93,2.78-6.01,4.08-4.63,2.9-10.01,5.43-15.61,7l7.02,3.41h21.28Z"/>
            <path d="M389.01,202.43c-6.28,6.58-11.14,10.98-16.07,14.63l16.68,8.11c4.93-3.65,9.79-8.06,16.07-14.63l-16.68-8.11"/>
            <path class="cls-7" d="M413.65,174.78c-10.64,12.33-18.35,21.08-24.63,27.66l16.68,8.11c6.28-6.58,13.99-15.32,24.63-27.66l-16.68-8.11"/>
            <path d="M441.36,142.51c-3.58,4.17-6.95,8.1-10.13,11.8-6.65,7.76-12.46,14.53-17.58,20.47l16.68,8.11c5.12-5.94,10.93-12.71,17.58-20.47,3.18-3.7,6.55-7.63,10.13-11.8l-16.68-8.11"/>
            <path class="cls-7" d="M466.02,118.35l-2.61-1.27h0c-2.01,2.19-3.93,4.37-5.75,6.48-5.88,6.82-11.3,13.12-16.3,18.95l16.68,8.11c2.55-2.97,5.21-6.06,7.97-9.28v-22.99Z"/>
            <path d="M466.02,114.28c-.89,.93-1.76,1.87-2.61,2.8l2.61,1.27v-4.07Z"/>
            <path d="M402.74,231.56l-13.11-6.38c-1.96,1.45-3.93,2.78-6.01,4.08-1.28,.8-2.61,1.57-3.99,2.3h23.11Z"/>
            <path class="cls-7" d="M408.58,231.56c4.19-3.32,8.48-7.32,13.8-12.89l-16.69-8.12c-6.28,6.58-11.14,10.98-16.07,14.63l13.11,6.38h5.84Z"/>
            <path d="M430.33,182.89c-10.64,12.33-18.35,21.08-24.63,27.66l16.69,8.12c6.28-6.58,13.99-15.32,24.63-27.66l-16.69-8.12"/>
            <path class="cls-7" d="M466.02,154.5l-7.97-3.88c-3.58,4.17-6.95,8.1-10.13,11.8-6.65,7.76-12.46,14.53-17.58,20.47l16.69,8.12c5.12-5.94,10.93-12.71,17.58-20.47,.46-.54,.94-1.1,1.42-1.65v-14.39Z"/>
            <path d="M466.02,141.34c-2.77,3.22-5.43,6.31-7.97,9.28l7.97,3.88v-13.16Z"/>
            <path d="M434.36,231.56c1.49-1.46,3.05-3.04,4.71-4.78l-16.68-8.11c-5.32,5.57-9.62,9.58-13.8,12.89h25.78Z"/>
            <path class="cls-7" d="M447.02,191.01c-10.64,12.33-18.35,21.08-24.63,27.66l16.68,8.11c6.28-6.58,13.99-15.32,24.63-27.66l-16.68-8.11"/>
            <path d="M466.02,168.89c-.47,.55-.95,1.11-1.42,1.65-6.65,7.76-12.46,14.53-17.58,20.47l16.68,8.11c.76-.88,1.53-1.77,2.32-2.69v-27.54Z"/>
            <path class="cls-7" d="M448.89,231.56l-9.82-4.78c-1.66,1.74-3.22,3.32-4.71,4.78h14.53Z"/>
            <path d="M458.46,231.56c2.31-2.48,4.8-5.24,7.56-8.34v-22.97l-2.32-1.13c-10.64,12.33-18.35,21.08-24.63,27.66l9.82,4.78h9.57Z"/>
            <path class="cls-7" d="M466.02,196.44c-.79,.91-1.56,1.81-2.32,2.69l2.32,1.13v-3.81Z"/>
          </g>
          <g>
            <path class="cls-7" d="M157.51,146.1c.67,.37,1.54,.88,2.23,1.22l-16.39-7.97c-.75-.37-1.5-.77-2.23-1.22l16.39,7.97"/>
            <path d="M141.48,124.23c3.54,8.59,7.93,16.32,14.77,21.05,.42,.29,.84,.56,1.26,.82l-16.39-7.97c-.43-.26-.85-.54-1.26-.82-6.83-4.73-11.23-12.46-14.77-21.05l16.39,7.97"/>
            <path class="cls-7" d="M130.93,95.74c2.08,4.72,3.86,9.91,5.68,15.2,1.54,4.47,3.09,8.98,4.86,13.28l-16.39-7.97c-1.77-4.3-3.32-8.82-4.86-13.28-1.82-5.29-3.61-10.48-5.68-15.2l16.39,7.97"/>
            <path d="M115.86,77.37c7,3.41,11.47,10.18,15.07,18.37l-16.39-7.97c-3.6-8.19-8.07-14.96-15.07-18.37,4.92,2.39,11.48,5.58,16.39,7.97"/>
            <path d="M174.19,154.21c.67,.37,1.54,.88,2.23,1.22l-16.68-8.11c-.67-.36-1.58-.82-2.23-1.22l16.68,8.11"/>
            <path class="cls-7" d="M141.48,124.23c3.54,8.59,7.93,16.32,14.77,21.05,.42,.29,.84,.56,1.26,.82l16.68,8.11c-.43-.26-.85-.54-1.26-.82-6.83-4.73-11.23-12.46-14.77-21.05l-16.68-8.11"/>
            <path d="M130.93,95.74c2.08,4.72,3.86,9.91,5.68,15.2,1.54,4.47,3.09,8.98,4.86,13.28l16.68,8.11c-1.77-4.3-3.32-8.82-4.86-13.28-1.82-5.29-3.61-10.48-5.68-15.2l-16.68-8.11"/>
            <path class="cls-7" d="M132.54,85.49c7,3.41,11.47,10.18,15.07,18.37l-16.68-8.11c-3.6-8.19-8.07-14.96-15.07-18.37l16.68,8.11"/>
            <path class="cls-7" d="M190.87,162.33c.73,.45,1.47,.85,2.23,1.22l-16.68-8.11c-.67-.36-1.58-.82-2.23-1.22l16.68,8.11"/>
            <path d="M158.16,132.34c3.54,8.59,7.93,16.32,14.77,21.05,.42,.29,.84,.56,1.26,.82l16.68,8.11c-.43-.26-.85-.54-1.26-.82-6.83-4.73-11.23-12.46-14.77-21.05l-16.68-8.11"/>
            <path class="cls-7" d="M147.61,103.85c2.08,4.72,3.86,9.91,5.68,15.2,1.54,4.47,3.09,8.98,4.86,13.28l16.68,8.11c-1.77-4.3-3.32-8.82-4.86-13.28-1.82-5.29-3.61-10.48-5.68-15.2l-16.68-8.11"/>
            <path d="M149.22,93.6c7,3.41,11.47,10.18,15.07,18.37l-16.68-8.11c-3.6-8.19-8.07-14.96-15.07-18.37l16.68,8.11"/>
            <path d="M207.56,170.45c.73,.45,1.47,.85,2.23,1.22l-16.69-8.12c-.75-.37-1.5-.77-2.23-1.22l16.69,8.12"/>
            <path class="cls-7" d="M174.84,140.46c3.54,8.59,7.93,16.32,14.77,21.05,.42,.29,.84,.56,1.26,.82l16.69,8.12c-.43-.26-.85-.54-1.26-.82-6.83-4.73-11.23-12.46-14.77-21.05l-16.69-8.12"/>
            <path d="M164.29,111.97c2.08,4.72,3.86,9.91,5.68,15.2,1.54,4.47,3.09,8.98,4.86,13.28l16.69,8.12c-1.77-4.3-3.32-8.82-4.86-13.28-1.82-5.29-3.61-10.48-5.68-15.2l-16.69-8.12"/>
            <path class="cls-7" d="M165.91,101.72c7,3.41,11.47,10.18,15.07,18.37l-16.69-8.12c-3.6-8.19-8.07-14.96-15.07-18.37l16.69,8.12"/>
            <path class="cls-7" d="M224.24,178.56c.73,.45,1.47,.85,2.23,1.22l-16.68-8.11c-.75-.37-1.5-.77-2.23-1.22l16.68,8.11"/>
            <path d="M191.53,148.57c3.54,8.59,7.93,16.32,14.77,21.05,.42,.29,.84,.56,1.26,.82l16.68,8.11c-.43-.26-.85-.54-1.26-.82-6.83-4.73-11.23-12.46-14.77-21.05l-16.68-8.11"/>
            <path class="cls-7" d="M180.98,120.09c2.08,4.72,3.86,9.91,5.68,15.2,1.54,4.47,3.09,8.98,4.86,13.28l16.68,8.11c-1.77-4.3-3.32-8.82-4.86-13.28-1.82-5.29-3.61-10.48-5.68-15.2l-16.68-8.11"/>
            <path d="M182.59,109.83c7,3.41,11.47,10.18,15.07,18.37l-16.68-8.11c-3.6-8.19-8.07-14.96-15.07-18.37l16.68,8.11"/>
            <path d="M240.92,186.68c.73,.45,1.47,.85,2.23,1.22l-16.68-8.11c-.75-.37-1.5-.77-2.23-1.22l16.68,8.11"/>
            <path class="cls-7" d="M208.21,156.69c3.54,8.59,7.93,16.32,14.77,21.05,.42,.29,.84,.56,1.26,.82l16.68,8.11c-.43-.26-.85-.54-1.26-.82-6.83-4.73-11.23-12.46-14.77-21.05l-16.68-8.11"/>
            <path d="M197.66,128.2c2.08,4.72,3.86,9.91,5.68,15.2,1.54,4.47,3.09,8.98,4.86,13.28l16.68,8.11c-1.77-4.3-3.32-8.82-4.86-13.28-1.82-5.29-3.61-10.48-5.68-15.2l-16.68-8.11"/>
            <path class="cls-7" d="M199.27,117.95c7,3.41,11.47,10.18,15.07,18.37l-16.68-8.11c-3.6-8.19-8.07-14.96-15.07-18.37l16.68,8.11"/>
            <path class="cls-7" d="M257.6,194.79c.73,.45,1.47,.85,2.23,1.22l-16.68-8.11c-.75-.37-1.5-.77-2.23-1.22l16.68,8.11"/>
            <path d="M224.89,164.8c3.54,8.59,7.93,16.32,14.77,21.05,.42,.29,.84,.56,1.26,.82l16.68,8.11c-.43-.26-.85-.54-1.26-.82-6.83-4.73-11.23-12.46-14.77-21.05l-16.68-8.11"/>
            <path class="cls-7" d="M214.34,136.32c2.08,4.72,3.86,9.91,5.68,15.2,1.54,4.47,3.09,8.98,4.86,13.28l16.68,8.11c-1.77-4.3-3.33-8.82-4.86-13.28-1.82-5.29-3.61-10.48-5.68-15.2l-16.68-8.11"/>
            <path d="M215.95,126.06c7,3.41,11.47,10.18,15.07,18.37l-16.68-8.11c-3.6-8.19-8.07-14.96-15.07-18.37l16.68,8.11"/>
            <path d="M274.28,202.91c.73,.45,1.47,.85,2.23,1.22l-16.68-8.11c-.75-.37-1.5-.77-2.23-1.22l16.68,8.11"/>
            <path class="cls-7" d="M241.57,172.92c3.54,8.59,7.93,16.32,14.77,21.05,.42,.29,.84,.56,1.26,.82l16.68,8.11c-.43-.26-.85-.54-1.26-.82-6.83-4.73-11.23-12.46-14.77-21.05l-16.68-8.11"/>
            <path d="M231.02,144.43c2.08,4.72,3.86,9.91,5.68,15.2,1.54,4.47,3.09,8.98,4.86,13.28l16.68,8.11c-1.77-4.3-3.32-8.82-4.86-13.28-1.82-5.29-3.61-10.48-5.68-15.2l-16.68-8.11"/>
            <path class="cls-7" d="M232.64,134.18c7,3.41,11.47,10.18,15.07,18.37l-16.68-8.11c-3.6-8.19-8.07-14.96-15.07-18.37l16.68,8.11"/>
            <path class="cls-7" d="M290.97,211.02c.73,.45,1.47,.85,2.23,1.22l-16.69-8.12c-.75-.37-1.5-.77-2.23-1.22l16.69,8.12"/>
            <path d="M258.25,181.03c3.54,8.59,7.93,16.32,14.77,21.05,.42,.29,.84,.56,1.26,.82l16.69,8.12c-.43-.26-.85-.54-1.26-.82-6.83-4.73-11.23-12.46-14.77-21.05l-16.69-8.12"/>
            <path class="cls-7" d="M247.7,152.55c2.08,4.72,3.86,9.91,5.68,15.2,1.54,4.47,3.09,8.98,4.86,13.28l16.69,8.12c-1.77-4.3-3.32-8.82-4.86-13.28-1.82-5.29-3.61-10.48-5.68-15.2l-16.69-8.12"/>
            <path d="M249.32,142.3c7,3.41,11.47,10.18,15.07,18.37l-16.69-8.12c-3.6-8.19-8.07-14.96-15.07-18.37l16.69,8.12"/>
            <path d="M307.65,219.14c.73,.45,1.47,.85,2.23,1.22l-16.68-8.11c-.75-.37-1.5-.77-2.23-1.22l16.68,8.11"/>
            <path class="cls-7" d="M274.94,189.15c3.54,8.59,7.93,16.32,14.77,21.05,.42,.29,.84,.56,1.26,.82l16.68,8.11c-.43-.26-.85-.54-1.26-.82-6.83-4.73-11.23-12.46-14.77-21.05l-16.68-8.11"/>
            <path d="M264.39,160.66c2.08,4.72,3.86,9.91,5.68,15.2,1.54,4.47,3.09,8.98,4.86,13.28l16.68,8.11c-1.77-4.3-3.32-8.82-4.86-13.28-1.82-5.29-3.61-10.48-5.68-15.2l-16.68-8.11"/>
            <path class="cls-7" d="M266,150.41c7,3.41,11.47,10.18,15.07,18.37l-16.68-8.11c-3.6-8.19-8.07-14.96-15.07-18.37l16.68,8.11"/>
            <path class="cls-7" d="M324.33,227.25c.73,.45,1.47,.85,2.23,1.22l-16.68-8.11c-.75-.37-1.5-.77-2.23-1.22l16.68,8.11"/>
            <path d="M291.62,197.27c3.54,8.59,7.93,16.32,14.77,21.05,.42,.29,.84,.56,1.26,.82l16.68,8.11c-.43-.26-.85-.54-1.26-.82-6.83-4.73-11.23-12.46-14.77-21.05l-16.68-8.11"/>
            <path class="cls-7" d="M281.07,168.78c2.08,4.72,3.86,9.91,5.68,15.2,1.54,4.47,3.09,8.98,4.86,13.28l16.68,8.11c-1.77-4.3-3.33-8.82-4.86-13.28-1.82-5.29-3.61-10.48-5.68-15.2l-16.68-8.11"/>
            <path d="M282.68,158.53c7,3.41,11.47,10.18,15.07,18.37l-16.68-8.11c-3.6-8.19-8.07-14.96-15.07-18.37l16.68,8.11"/>
            <path d="M332.9,231.56h.28l-8.85-4.31c.73,.45,1.47,.85,2.23,1.22l6.35,3.09Z"/>
            <path class="cls-7" d="M323.06,226.43c.42,.29,.84,.56,1.26,.82l8.85,4.31h2.95c-4.84-4.69-8.28-11.09-11.15-18.06l-16.68-8.11c3.54,8.59,7.93,16.32,14.77,21.05Z"/>
            <path d="M297.75,176.89c2.08,4.72,3.86,9.91,5.68,15.2,1.54,4.47,3.09,8.98,4.86,13.28l16.68,8.11c-1.77-4.3-3.32-8.82-4.86-13.28-1.82-5.29-3.61-10.48-5.68-15.2l-16.68-8.11"/>
            <path class="cls-7" d="M299.37,166.64c7,3.41,11.47,10.18,15.07,18.37l-16.68-8.11c-3.6-8.19-8.07-14.96-15.07-18.37l16.68,8.11"/>
            <path d="M336.13,231.56h10.42c-1.84-3.08-3.43-6.44-4.88-9.95l-16.69-8.12h0c2.87,6.97,6.3,13.37,11.15,18.06Z"/>
            <path class="cls-7" d="M314.43,185.01c2.08,4.72,3.86,9.91,5.68,15.2,1.54,4.47,3.09,8.98,4.86,13.28l16.69,8.12c-1.77-4.3-3.33-8.82-4.86-13.28-1.82-5.29-3.61-10.48-5.68-15.2l-16.69-8.12"/>
            <path d="M316.05,174.76c7,3.41,11.47,10.18,15.07,18.37l-16.69-8.12c-3.6-8.19-8.07-14.96-15.07-18.37l16.69,8.12"/>
            <path class="cls-7" d="M359.12,231.56c-.26-.61-.52-1.22-.78-1.83l-16.68-8.11c1.44,3.51,3.04,6.87,4.88,9.95h12.58Z"/>
            <path d="M331.12,193.13c2.08,4.72,3.86,9.91,5.68,15.2,1.54,4.47,3.09,8.98,4.86,13.28l16.68,8.11c-1.77-4.3-3.32-8.82-4.86-13.28-1.82-5.29-3.61-10.48-5.68-15.2l-16.68-8.11"/>
            <path class="cls-7" d="M332.73,182.87c7,3.41,11.47,10.18,15.07,18.37l-16.68-8.11c-3.6-8.19-8.07-14.96-15.07-18.37l16.68,8.11"/>
            <path d="M362.11,231.56l-3.76-1.83c.25,.62,.51,1.23,.78,1.83h2.99Z"/>
            <path class="cls-7" d="M358.35,229.73l3.76,1.83h10.27c-.86-2.37-1.69-4.76-2.51-7.14-1.82-5.29-3.61-10.48-5.68-15.2l-16.39-7.97c2.08,4.72,3.86,9.91,5.68,15.2,1.54,4.47,3.09,8.98,4.86,13.28Z"/>
            <path d="M349.13,190.85c7,3.41,11.47,10.18,15.07,18.37l-16.39-7.97c-3.6-8.19-8.07-14.96-15.07-18.37,4.92,2.39,11.47,5.58,16.39,7.97"/>
          </g>
          <path class="cls-10" d="M458.46,231.56c2.31-2.48,4.8-5.24,7.56-8.34V66.28L334.58,2.34c-1.07-.52-2.19-.96-3.38-1.32-19.86-6.04-41.91,16.18-56.75,33.42-10.09,11.71-18.81,21.88-26.43,30.75-39.78,46.39-49.23,57.41-64.29,66.84-11.35,7.11-27.25,12-39.71,5.94l192.41,93.6h122.03Z"/>
          <path class="cls-2" d="M458.46,231.56c2.31-2.48,4.8-5.24,7.56-8.34V66.28L334.58,2.34c-1.07-.52-2.19-.96-3.38-1.32-19.86-6.04-41.91,16.18-56.75,33.42-10.09,11.71-18.81,21.87-26.43,30.75-39.78,46.39-49.23,57.41-64.29,66.84-11.35,7.11-27.25,12-39.71,5.94l192.41,93.6h122.03Z"/>
          <path class="cls-10" d="M120.22,102.97c4.61,13.39,9.37,27.23,19.63,34.33,1.13,.78,2.29,1.46,3.49,2.04l189.56,92.22h39.48c-.86-2.37-1.68-4.76-2.5-7.14-4.98-14.47-9.71-28.2-20.75-33.57L99.47,69.4c11.04,5.37,15.77,19.1,20.75,33.57Z"/>
          <path class="cls-4" d="M107.13,75.38c5.94,6.81,9.45,17,13.1,27.59,3.7,10.75,7.5,21.79,14.17,29.41,1.63,1.87,3.44,3.53,5.46,4.92,1.13,.78,2.29,1.46,3.49,2.04l189.56,92.22h39.48c-.86-2.37-1.69-4.76-2.5-7.14-3.64-10.58-7.15-20.77-13.1-27.59-2.18-2.5-4.69-4.55-7.66-5.99L99.47,69.4c2.96,1.44,5.47,3.49,7.66,5.99Z"/>
          <g>
            <path d="M0,178.96v7.75c1.32-1.94,2.63-3.89,3.97-5.82h0l-3.97-1.93Z"/>
            <path class="cls-7" d="M6.4,146.39c-2.15,2.96-4.27,5.93-6.4,8.9v23.67l3.97,1.93c6.17-8.93,12.44-17.76,18.83-26.53l-16.39-7.97Z"/>
            <path d="M42.35,128.18c-6.65,8.7-13.16,17.42-19.55,26.19l-16.39-7.97c6.39-8.77,12.9-17.49,19.55-26.19l16.39,7.97"/>
            <path class="cls-7" d="M62.57,102.57c-2.52,2.94-4.9,5.89-7.11,8.7-4.43,5.64-8.8,11.27-13.11,16.9l-16.39-7.97c4.31-5.64,8.68-11.27,13.11-16.9,2.22-2.82,4.6-5.76,7.11-8.7l16.39,7.97"/>
            <path d="M86.63,80.28c-8.68,5.58-16.92,13.94-24.06,22.3l-16.39-7.97c7.14-8.35,15.38-16.72,24.06-22.3l16.39,7.97"/>
            <path class="cls-7" d="M113.33,74.71c-.17-.05-.33-.1-.5-.15-8.74-2.54-17.68,.24-26.2,5.72l-16.39-7.97c8.52-5.47,17.46-8.26,26.2-5.72,.17,.05,.34,.1,.5,.15l16.39,7.97"/>
            <path d="M0,214.98v4.88c.8-1.24,1.6-2.48,2.4-3.71l-2.4-1.17Z"/>
            <path class="cls-7" d="M3.97,180.89h0c-1.33,1.93-2.64,3.88-3.97,5.82v28.27l2.4,1.17c6-9.18,12.07-18.21,18.24-27.15l-16.68-8.11Z"/>
            <path d="M22.79,154.37c-6.39,8.77-12.66,17.6-18.83,26.53l16.68,8.11c6.17-8.93,12.44-17.76,18.83-26.53l-16.68-8.11"/>
            <path class="cls-7" d="M42.35,128.18c-6.65,8.7-13.16,17.42-19.55,26.19l16.68,8.11c6.39-8.77,12.9-17.49,19.55-26.19l-16.68-8.11"/>
            <path d="M62.57,102.57c-2.52,2.94-4.9,5.89-7.11,8.7-4.43,5.64-8.8,11.27-13.11,16.9l16.68,8.11c4.31-5.64,8.68-11.27,13.11-16.9,2.22-2.82,4.6-5.76,7.11-8.7l-16.68-8.11"/>
            <path class="cls-7" d="M86.63,80.28c-8.68,5.58-16.92,13.94-24.06,22.3l16.68,8.11c7.14-8.35,15.38-16.72,24.06-22.3l-16.68-8.11"/>
            <path d="M113.33,74.71c-.17-.05-.33-.1-.5-.15-8.74-2.54-17.68,.24-26.2,5.72l16.68,8.11c8.52-5.47,17.46-8.26,26.2-5.72,.17,.05,.34,.1,.5,.15l-16.68-8.11"/>
            <path class="cls-7" d="M2.4,216.15h0c-.8,1.23-1.6,2.47-2.4,3.71v11.7H14.36c1.57-2.44,3.15-4.87,4.73-7.29l-16.68-8.11Z"/>
            <path d="M20.65,189.01c-6.17,8.93-12.25,17.97-18.24,27.15l16.68,8.11c6-9.18,12.07-18.21,18.24-27.15l-16.68-8.11"/>
            <path class="cls-7" d="M39.48,162.48c-6.39,8.77-12.66,17.6-18.83,26.53l16.68,8.11c6.17-8.93,12.44-17.76,18.83-26.53l-16.68-8.11"/>
            <path d="M59.03,136.29c-6.65,8.7-13.16,17.42-19.55,26.19l16.68,8.11c6.39-8.77,12.9-17.49,19.55-26.19l-16.68-8.11"/>
            <path class="cls-7" d="M79.25,110.69c-2.52,2.94-4.9,5.89-7.11,8.7-4.43,5.64-8.8,11.27-13.11,16.9l16.68,8.11c4.31-5.64,8.68-11.27,13.11-16.9,2.22-2.82,4.6-5.76,7.11-8.7l-16.68-8.11"/>
            <path d="M103.31,88.39c-8.68,5.58-16.92,13.94-24.06,22.3l16.68,8.11c7.14-8.35,15.38-16.72,24.06-22.3l-16.68-8.11"/>
            <path class="cls-7" d="M130.01,82.83c-.17-.05-.33-.1-.5-.15-8.74-2.54-17.68,.24-26.2,5.72l16.68,8.11c8.52-5.47,17.46-8.26,26.2-5.72,.17,.05,.34,.1,.5,.15l-16.68-8.11"/>
            <path d="M34.07,231.56l-14.99-7.29c-1.58,2.42-3.16,4.85-4.73,7.29h19.71Z"/>
            <path class="cls-7" d="M36.32,231.56c5.82-8.89,11.71-17.65,17.7-26.32l-16.69-8.12c-6.17,8.93-12.25,17.97-18.24,27.15l14.99,7.29h2.25Z"/>
            <path d="M56.16,170.6c-6.39,8.77-12.66,17.6-18.83,26.53l16.69,8.12c6.17-8.93,12.44-17.76,18.83-26.53l-16.69-8.12"/>
            <path class="cls-7" d="M75.71,144.41c-6.65,8.7-13.16,17.42-19.55,26.19l16.69,8.12c6.39-8.77,12.9-17.49,19.55-26.19l-16.69-8.12"/>
            <path d="M95.93,118.8c-2.52,2.94-4.9,5.89-7.11,8.7-4.43,5.64-8.8,11.27-13.11,16.9l16.69,8.12c4.31-5.64,8.68-11.27,13.11-16.9,2.22-2.82,4.6-5.76,7.11-8.7l-16.69-8.12"/>
            <path class="cls-7" d="M119.99,96.51c-8.68,5.58-16.92,13.94-24.06,22.3l16.69,8.12c7.14-8.35,15.38-16.72,24.06-22.3l-16.69-8.12"/>
            <path d="M146.69,90.94c-.17-.05-.33-.1-.5-.15-8.74-2.54-17.68,.24-26.2,5.72l16.69,8.12c8.52-5.47,17.46-8.26,26.2-5.72,.17,.05,.34,.1,.5,.15l-16.69-8.12"/>
            <path d="M58.38,231.56c4.07-6.11,8.16-12.19,12.32-18.2l-16.68-8.11c-5.99,8.66-11.88,17.43-17.7,26.32h22.06Z"/>
            <path class="cls-7" d="M72.84,178.71c-6.39,8.77-12.66,17.6-18.83,26.53l16.68,8.11c6.17-8.93,12.44-17.76,18.83-26.53l-16.68-8.11"/>
            <path d="M92.4,152.53c-6.65,8.7-13.16,17.42-19.55,26.19l16.68,8.11c6.39-8.77,12.9-17.49,19.55-26.19l-16.68-8.11"/>
            <path class="cls-7" d="M112.62,126.92c-2.52,2.94-4.9,5.89-7.11,8.7-4.43,5.64-8.8,11.27-13.11,16.9l16.68,8.11c4.31-5.64,8.68-11.27,13.11-16.9,2.22-2.82,4.6-5.76,7.11-8.7l-16.68-8.11"/>
            <path d="M136.68,104.63c-8.68,5.58-16.92,13.94-24.06,22.3l16.68,8.11c7.14-8.35,15.38-16.72,24.06-22.3l-16.68-8.11"/>
            <path class="cls-7" d="M163.38,99.06c-.17-.05-.33-.1-.5-.15-8.74-2.54-17.68,.24-26.2,5.72l16.68,8.11c8.52-5.47,17.46-8.26,26.2-5.72,.17,.05,.34,.1,.5,.15l-16.68-8.11"/>
            <path class="cls-7" d="M80.5,231.56c2.28-3.37,4.57-6.75,6.88-10.09l-16.68-8.11c-4.15,6.01-8.25,12.09-12.32,18.2h22.12Z"/>
            <path d="M89.53,186.83c-6.39,8.77-12.66,17.6-18.83,26.53l16.68,8.11c6.17-8.93,12.44-17.76,18.83-26.53l-16.68-8.11"/>
            <path class="cls-7" d="M109.08,160.64c-6.65,8.7-13.16,17.42-19.55,26.19l16.68,8.11c6.39-8.77,12.9-17.49,19.55-26.19l-16.68-8.11"/>
            <path d="M129.3,135.04c-2.52,2.94-4.9,5.89-7.11,8.7-4.43,5.64-8.8,11.27-13.11,16.9l16.68,8.11c4.31-5.64,8.68-11.27,13.11-16.9,2.22-2.82,4.6-5.76,7.11-8.7l-16.68-8.11"/>
            <path class="cls-7" d="M153.36,112.74c-8.68,5.58-16.92,13.94-24.06,22.3l16.68,8.11c7.14-8.35,15.38-16.72,24.06-22.3l-16.68-8.11"/>
            <path d="M180.06,107.17c-.17-.05-.33-.1-.5-.15-8.74-2.54-17.68,.25-26.2,5.72l16.68,8.11c8.52-5.47,17.46-8.26,26.2-5.72,.17,.05,.34,.1,.5,.15l-16.68-8.11"/>
            <path d="M102.71,231.56c.45-.65,.89-1.32,1.35-1.97l-16.68-8.11c-2.31,3.34-4.59,6.72-6.88,10.09h22.21Z"/>
            <path class="cls-7" d="M106.21,194.94c-6.39,8.77-12.66,17.6-18.83,26.53l16.68,8.11c6.17-8.93,12.44-17.76,18.83-26.53l-16.68-8.11"/>
            <path d="M125.76,168.76c-6.65,8.7-13.16,17.42-19.55,26.19l16.68,8.11c6.39-8.77,12.9-17.49,19.55-26.19l-16.68-8.11"/>
            <path class="cls-7" d="M145.98,143.15c-2.52,2.94-4.9,5.89-7.11,8.7-4.43,5.64-8.8,11.27-13.11,16.9l16.68,8.11c4.31-5.64,8.68-11.27,13.11-16.9,2.22-2.82,4.6-5.76,7.11-8.7l-16.68-8.11"/>
            <path d="M170.04,120.85c-8.68,5.58-16.92,13.94-24.06,22.3l16.68,8.11c7.14-8.35,15.38-16.72,24.06-22.3l-16.68-8.11"/>
            <path class="cls-7" d="M196.74,115.29c-.17-.05-.33-.1-.5-.15-8.74-2.54-17.68,.24-26.2,5.72l16.68,8.11c8.52-5.47,17.46-8.26,26.2-5.72,.17,.05,.34,.1,.5,.15l-16.68-8.11"/>
            <path class="cls-7" d="M108.12,231.56l-4.06-1.97c-.45,.65-.89,1.32-1.35,1.97h5.4Z"/>
            <path d="M125.04,231.56c4.78-6.84,9.61-13.64,14.53-20.39l-16.68-8.11h0c-6.39,8.77-12.66,17.6-18.83,26.53l4.06,1.97h16.93Z"/>
            <path class="cls-7" d="M142.44,176.87c-6.65,8.7-13.16,17.42-19.55,26.19l16.68,8.11c6.39-8.77,12.9-17.49,19.55-26.19l-16.68-8.11"/>
            <path d="M162.66,151.27c-2.52,2.94-4.9,5.89-7.11,8.7-4.43,5.64-8.8,11.27-13.11,16.9l16.68,8.11c4.31-5.64,8.68-11.27,13.11-16.9,2.22-2.82,4.6-5.76,7.11-8.7l-16.68-8.11"/>
            <path class="cls-7" d="M186.72,128.97c-8.68,5.58-16.92,13.94-24.06,22.3l16.68,8.11c7.14-8.35,15.38-16.72,24.06-22.3l-16.68-8.11"/>
            <path d="M213.42,123.4c-.17-.05-.33-.1-.5-.15-8.74-2.54-17.68,.25-26.2,5.72l16.68,8.11c8.52-5.47,17.46-8.26,26.2-5.72,.17,.05,.34,.1,.5,.15l-16.68-8.11"/>
            <path class="cls-7" d="M147.43,231.56c2.92-4.1,5.85-8.19,8.82-12.27l-16.69-8.12c-4.92,6.75-9.74,13.55-14.53,20.39h22.39Z"/>
            <path d="M159.12,184.99c-6.65,8.7-13.16,17.42-19.55,26.19l16.69,8.12c6.39-8.77,12.9-17.49,19.55-26.19l-16.69-8.12"/>
            <path class="cls-7" d="M179.34,159.38c-2.52,2.94-4.9,5.89-7.11,8.7-4.43,5.64-8.8,11.27-13.11,16.9l16.69,8.12c4.31-5.64,8.68-11.27,13.11-16.9,2.22-2.82,4.6-5.76,7.11-8.7l-16.69-8.12"/>
            <path d="M203.4,137.08c-8.68,5.58-16.92,13.94-24.06,22.3l16.69,8.12c7.14-8.35,15.38-16.72,24.06-22.3l-16.69-8.12"/>
            <path class="cls-7" d="M230.1,131.52c-.17-.05-.33-.1-.5-.15-8.74-2.54-17.68,.24-26.2,5.72l16.69,8.12c8.52-5.47,17.46-8.26,26.2-5.72,.17,.05,.34,.1,.5,.15l-16.69-8.12"/>
            <path d="M147.43,231.56h22.52c1-1.38,1.98-2.77,2.99-4.15l-16.68-8.11h0c-2.97,4.07-5.9,8.16-8.82,12.27Z"/>
            <path class="cls-7" d="M175.81,193.1c-6.65,8.7-13.16,17.42-19.55,26.19l16.68,8.11c6.39-8.77,12.9-17.49,19.55-26.19l-16.68-8.11"/>
            <path d="M196.03,167.5c-2.52,2.94-4.9,5.89-7.11,8.7-4.43,5.64-8.8,11.27-13.11,16.9l16.68,8.11c4.31-5.64,8.68-11.27,13.11-16.9,2.22-2.82,4.6-5.76,7.11-8.7l-16.68-8.11"/>
            <path class="cls-7" d="M220.09,145.2c-8.68,5.58-16.92,13.94-24.06,22.3l16.68,8.11c7.14-8.35,15.38-16.72,24.06-22.3l-16.68-8.11"/>
            <path d="M246.79,139.64c-.17-.05-.33-.1-.5-.15-8.74-2.54-17.68,.24-26.2,5.72l16.68,8.11c8.52-5.47,17.46-8.26,26.2-5.72,.17,.05,.34,.1,.5,.15l-16.68-8.11"/>
            <path class="cls-7" d="M181.47,231.56l-8.54-4.15c-1,1.38-1.99,2.77-2.99,4.15h11.52Z"/>
            <path d="M181.47,231.56h11.07c5.46-7.43,10.98-14.84,16.63-22.23l-16.68-8.11c-6.65,8.7-13.16,17.42-19.55,26.19l8.54,4.15Z"/>
            <path class="cls-7" d="M212.71,175.61c-2.52,2.94-4.9,5.89-7.11,8.7-4.43,5.64-8.8,11.27-13.11,16.9l16.68,8.11c4.31-5.64,8.68-11.27,13.11-16.9,2.22-2.82,4.6-5.76,7.11-8.7l-16.68-8.11"/>
            <path d="M236.77,153.32c-8.68,5.58-16.92,13.94-24.06,22.3l16.68,8.11c7.14-8.35,15.38-16.72,24.06-22.3l-16.68-8.11"/>
            <path class="cls-7" d="M263.47,147.75c-.17-.05-.33-.1-.5-.15-8.74-2.54-17.68,.25-26.2,5.72l16.68,8.11c8.52-5.47,17.46-8.26,26.2-5.72,.17,.05,.34,.1,.5,.15l-16.68-8.11"/>
            <path class="cls-7" d="M215.21,231.56c3.51-4.71,7.05-9.41,10.64-14.11l-16.68-8.11h0c-5.65,7.39-11.17,14.79-16.63,22.23h22.67Z"/>
            <path d="M229.39,183.73c-2.52,2.94-4.9,5.89-7.11,8.7-4.43,5.64-8.8,11.27-13.11,16.9l16.68,8.11c4.31-5.64,8.68-11.27,13.11-16.9,2.22-2.82,4.6-5.76,7.11-8.7l-16.68-8.11"/>
            <path class="cls-7" d="M253.45,161.43c-8.68,5.58-16.92,13.94-24.06,22.3l16.68,8.11c7.14-8.35,15.38-16.72,24.06-22.3l-16.68-8.11"/>
            <path d="M280.15,155.87c-.17-.05-.33-.1-.5-.15-8.74-2.54-17.68,.24-26.2,5.72l16.68,8.11c8.52-5.47,17.46-8.26,26.2-5.72,.17,.05,.34,.1,.5,.15l-16.68-8.11"/>
            <path d="M238.01,231.56c1.51-2,3-4,4.53-5.99l-16.69-8.12c-3.59,4.7-7.13,9.4-10.64,14.11h22.81Z"/>
            <path class="cls-7" d="M246.07,191.84c-2.52,2.94-4.9,5.89-7.11,8.7-4.43,5.64-8.8,11.27-13.11,16.9l16.69,8.12c4.31-5.64,8.68-11.27,13.11-16.9,2.22-2.82,4.6-5.76,7.11-8.7l-16.69-8.12"/>
            <path d="M270.13,169.55c-8.68,5.58-16.92,13.94-24.06,22.3l16.69,8.12c7.14-8.35,15.38-16.72,24.06-22.3l-16.69-8.12"/>
            <path class="cls-7" d="M296.83,163.98c-.17-.05-.33-.1-.5-.15-8.74-2.54-17.68,.24-26.2,5.72l16.69,8.12c8.52-5.47,17.46-8.26,26.2-5.72,.17,.05,.34,.1,.5,.15l-16.69-8.12"/>
            <path class="cls-7" d="M254.86,231.56l-12.32-5.99c-1.53,1.99-3.02,4-4.53,5.99h16.85Z"/>
            <path d="M260.85,231.56c3.78-4.93,7.6-9.85,11.48-14.78,2.22-2.82,4.6-5.76,7.11-8.7l-16.68-8.11c-2.52,2.94-4.9,5.89-7.11,8.7-4.43,5.64-8.8,11.27-13.11,16.9l12.32,5.99h6Z"/>
            <path class="cls-7" d="M286.82,177.66c-8.68,5.58-16.92,13.94-24.06,22.3l16.68,8.11c7.14-8.35,15.38-16.72,24.06-22.3l-16.68-8.11"/>
            <path d="M313.52,172.1c-.17-.05-.33-.1-.5-.15-8.74-2.54-17.68,.24-26.2,5.72l16.68,8.11c8.52-5.47,17.46-8.26,26.2-5.72,.17,.05,.34,.1,.5,.15l-16.68-8.11"/>
            <path class="cls-7" d="M283.4,231.56c1.76-2.27,3.53-4.54,5.32-6.81,2.22-2.82,4.6-5.76,7.11-8.7l-16.39-7.97c-2.52,2.94-4.9,5.89-7.11,8.7-3.88,4.93-7.7,9.85-11.48,14.78h22.55Z"/>
            <path d="M319.89,193.75c-8.68,5.58-16.92,13.94-24.06,22.3l-16.39-7.97c7.14-8.35,15.38-16.72,24.06-22.3l16.39,7.97"/>
            <path class="cls-7" d="M346.59,188.19c-.17-.05-.33-.1-.5-.15-8.74-2.54-17.68,.24-26.2,5.72l-16.39-7.97c8.52-5.47,17.46-8.26,26.2-5.72,.17,.05,.34,.1,.5,.15l16.39,7.97"/>
          </g>
          <path class="cls-10" d="M100.06,67.98c-1.14-.56-2.35-1.02-3.62-1.39-20.79-6.05-42.7,18.05-57.37,36.72C25.48,120.57,12.52,137.79,0,155.28v76.28H283.41c1.76-2.27,3.53-4.54,5.31-6.81,14.67-18.66,36.58-42.77,57.37-36.72,1.28,.37,2.48,.84,3.62,1.39L100.06,67.98Z"/>
          <path class="cls-5" d="M100.06,67.98c-1.14-.56-2.35-1.02-3.62-1.39-20.79-6.05-42.7,18.05-57.37,36.72C25.48,120.57,12.52,137.79,0,155.28v76.28H283.41c1.76-2.27,3.53-4.54,5.31-6.81,14.67-18.66,36.58-42.77,57.37-36.72,1.28,.37,2.48,.84,3.62,1.39L100.06,67.98Z"/>
          <g>
            <path class="cls-1" d="M284.99,231.56c1.54-1.97,3.07-3.95,4.62-5.92,14.4-18.32,35.87-41.98,55.96-36.16,13.64,3.96,18.82,19.01,24.31,34.94,.82,2.38,1.64,4.77,2.5,7.14h1.5c-.96-2.61-1.87-5.26-2.78-7.89-5.35-15.49-10.86-31.52-25.01-35.63-20.79-6.05-42.7,18.05-57.37,36.72-1.79,2.27-3.55,4.54-5.31,6.81h1.59Z"/>
            <path class="cls-1" d="M460.19,231.56c1.82-1.97,3.75-4.1,5.83-6.44v-1.9c-2.75,3.1-5.25,5.85-7.56,8.34h1.73Z"/>
          </g>
        </g>
      </g>
    </g>
  </g>
</svg>
