<?xml version="1.0" encoding="utf-8"?>
<!-- Generator: Adobe Illustrator 26.5.0, SVG Export Plug-In . SVG Version: 6.00 Build 0)  -->
<svg version="1.1" id="Calque_1" xmlns="http://www.w3.org/2000/svg" xmlns:xlink="http://www.w3.org/1999/xlink" x="0px" y="0px"
	 viewBox="0 0 1080 1080" style="enable-background:new 0 0 1080 1080;" xml:space="preserve">
<style type="text/css">
	.st0{fill:#9D005D;}
	.st1{opacity:0.3;}
	.st2{fill:#F5F5F5;}
	.st3{fill:none;}
	.st4{opacity:0.5;fill:url(#SVGID_1_);enable-background:new    ;}
	.st5{opacity:0.9;fill:url(#SVGID_00000081627588631220450340000014706051084409169322_);enable-background:new    ;}
	.st6{opacity:0.5;fill:url(#SVGID_00000126313832543223760570000015635313600502510744_);enable-background:new    ;}
	.st7{opacity:0.9;fill:url(#SVGID_00000106840805822444446590000008949299765365957025_);enable-background:new    ;}
	.st8{opacity:0.5;fill:url(#SVGID_00000085232396082875127820000005953403823321072256_);enable-background:new    ;}
	.st9{fill:#8B8B8B;}
	.st10{fill:#FFFFFF;}
</style>
<rect class="st0" width="1080" height="1080"/>
<g>
	<g id="Calque_2_00000166636671381754222810000007733496549828885682_">
		<g id="Layer_1">
			<g class="st1">
				<g>
					<path d="M1532.3,400.4c-42.8,12.6-85.6,13.1-121.7-4.5l-82.6-40.2c36.2,17.6,78.9,17.1,121.7,4.5L1532.3,400.4"/>
					<path class="st2" d="M1665.8,322c-38.7,35.6-86.2,64.4-133.5,78.3l-82.6-40.2c47.3-14,94.7-42.7,133.5-78.3L1665.8,322"/>
					<path d="M1766.7,195.7c-25.5,40.1-53.1,77.7-84.4,110.2c-5.3,5.5-10.8,10.9-16.5,16.1l-82.6-40.2c5.7-5.2,11.2-10.6,16.5-16.1
						c31.3-32.5,58.9-70.1,84.4-110.2L1766.7,195.7"/>
					<path class="st2" d="M1768.9,9.1l-1.8-0.9c-26.3,49.8-53.2,100.3-83.1,147.4l82.6,40.2c0.8-1.2,1.5-2.4,2.3-3.6V9.1L1768.9,9.1
						z"/>
					<path class="st2" d="M1616.3,441.3c-42.8,12.6-85.6,13.1-121.7-4.5l-84-40.9c36.2,17.6,78.9,17.1,121.7,4.5L1616.3,441.3"/>
					<path d="M1665.8,322c-38.7,35.6-86.2,64.4-133.5,78.3l84,40.9c47.3-14,94.7-42.7,133.5-78.3L1665.8,322"/>
					<path class="st2" d="M1768.9,196.8l-2.3-1.1c-25.5,40.1-53.1,77.7-84.4,110.2c-5.3,5.5-10.8,10.9-16.5,16.1l84,40.9
						c5.7-5.2,11.2-10.6,16.5-16.1c0.9-0.9,1.8-1.9,2.6-2.8L1768.9,196.8L1768.9,196.8z"/>
					<path d="M1700.4,482.2c-42.8,12.6-85.6,13.1-121.7-4.5l-84-40.9c36.2,17.6,78.9,17.1,121.7,4.5L1700.4,482.2"/>
					<path class="st2" d="M1768.9,372.2l-19.1-9.3l0,0c-38.7,35.6-86.2,64.4-133.5,78.3l84,40.9c23.2-6.9,46.4-17.2,68.5-30.2
						C1768.9,451.9,1768.9,372.2,1768.9,372.2z"/>
					<path d="M1768.9,344.1c-0.9,0.9-1.7,1.9-2.6,2.8c-5.3,5.5-10.8,10.9-16.5,16.1l19.1,9.3V344.1L1768.9,344.1z"/>
					<path class="st2" d="M1768.9,515.5l-68.5-33.4c-42.8,12.6-85.6,13.1-121.7-4.5l84.1,40.9c31.8,15.5,68.7,17,106.2,8.5
						L1768.9,515.5L1768.9,515.5z"/>
					<path d="M1768.9,451.9c-22.2,13-45.4,23.4-68.5,30.2l68.5,33.4V451.9z"/>
					<path d="M1768.9,527.1c-37.5,8.4-74.4,7-106.2-8.5l84,40.9c7.4,3.5,14.8,6.2,22.2,8.2V527.1z"/>
					<path class="st2" d="M1768.9,567.5c-9-2.6-16.3-5.6-22.2-8l22.2,10.8V567.5z"/>
				</g>
				<path class="st3" d="M1768.9,4.9c-49.3,93.3-100.5,189.4-169.2,260.9c-74,76.8-189.6,129.8-271.7,89.9l441,214.5L1768.9,4.9
					L1768.9,4.9z"/>

					<linearGradient id="SVGID_1_" gradientUnits="userSpaceOnUse" x1="1180.0695" y1="-4202.251" x2="2115.3391" y2="-3849.3149" gradientTransform="matrix(-8.489528e-02 0.9964 -0.9964 -8.489528e-02 -2235.4805 -1703.5212)">
					<stop  offset="0" style="stop-color:#FFFFFF"/>
					<stop  offset="5.000000e-02" style="stop-color:#D1D1D1"/>
					<stop  offset="0.12" style="stop-color:#9A9A9A"/>
					<stop  offset="0.19" style="stop-color:#6B6B6B"/>
					<stop  offset="0.26" style="stop-color:#444444"/>
					<stop  offset="0.33" style="stop-color:#262626"/>
					<stop  offset="0.4" style="stop-color:#111111"/>
					<stop  offset="0.47" style="stop-color:#040404"/>
					<stop  offset="0.53" style="stop-color:#000000"/>
					<stop  offset="1" style="stop-color:#FFFFFF"/>
				</linearGradient>
				<path class="st4" d="M1768.9,4.9c-49.3,93.3-100.5,189.4-169.2,260.9c-74,76.8-189.6,129.8-271.7,89.9l441,214.5L1768.9,4.9
					L1768.9,4.9z"/>
				<g>
					<path d="M1396.4,397.1l11.6,6.3l-82.6-40.2c-3.9-1.9-7.8-4-11.6-6.3L1396.4,397.1"/>
					<path class="st2" d="M1315.2,287.4c17.2,41.1,38.3,78.2,70.3,102.3c3.5,2.7,7.2,5.1,10.9,7.4l-82.6-40.2
						c-3.7-2.3-7.3-4.7-10.9-7.4c-32-24-53.1-61.2-70.3-102.3L1315.2,287.4"/>
					<path d="M1261,145.1c11,24,20.4,50.5,30,77.6c7.7,21.7,15.5,43.7,24.3,64.7l-82.6-40.2c-8.8-21-16.6-43-24.3-64.7
						c-9.6-27.1-19-53.6-30-77.6L1261,145.1"/>
					<path class="st2" d="M1186.3,56.4c34.4,16.7,56.6,49.3,74.7,88.7l-82.6-40.2c-18-39.5-40.4-72-74.7-88.7
						C1128.5,28.3,1161.5,44.3,1186.3,56.4"/>
					<path class="st2" d="M1480.5,437.9c3.8,2.3,7.7,4.4,11.6,6.3l-84-40.9l-11.6-6.3L1480.5,437.9"/>
					<path d="M1315.2,287.4c17.2,41.1,38.3,78.2,70.3,102.3c3.5,2.7,7.2,5.1,10.9,7.4l84,40.9c-3.7-2.3-7.3-4.7-10.9-7.4
						c-32-24-53.1-61.2-70.3-102.3L1315.2,287.4"/>
					<path class="st2" d="M1261,145.1c11,24,20.4,50.5,30,77.6c7.7,21.7,15.5,43.7,24.3,64.7l84,40.9c-8.8-21-16.6-43-24.3-64.7
						c-9.6-27.1-19-53.6-30-77.6L1261,145.1"/>
					<path d="M1270.3,97.3c27.7,15,49.8,35.1,74.7,88.7l-84-40.9c-18-39.5-40.4-72-74.7-88.7L1270.3,97.3"/>
					<path d="M1564.5,478.8c3.8,2.3,7.7,4.4,11.6,6.3l-84-40.9c-3.9-1.9-7.8-4-11.6-6.3L1564.5,478.8"/>
					<path class="st2" d="M1399.2,328.2c17.2,41.1,38.3,78.2,70.3,102.3c3.5,2.7,7.2,5.1,10.9,7.4l84,40.9
						c-3.7-2.3-7.3-4.7-10.9-7.4c-32-24-53.1-61.2-70.3-102.3L1399.2,328.2"/>
					<path d="M1345,186c11,24,20.4,50.5,30,77.6c7.7,21.7,15.5,43.7,24.3,64.7l84,40.9c-8.8-21-16.6-43-24.3-64.7
						c-9.6-27.1-19-53.6-30-77.6L1345,186"/>
					<path class="st2" d="M1354.3,138.1c34.4,16.7,56.6,49.3,74.7,88.7l-84-40.9c-19.1-40.2-39.1-70.7-74.7-88.7L1354.3,138.1"/>
					<path class="st2" d="M1648.6,519.7c3.8,2.3,7.7,4.4,11.6,6.3l-84.1-40.9c-3.9-1.9-7.8-4-11.6-6.3L1648.6,519.7"/>
					<path d="M1483.3,369.1c17.2,41.1,38.3,78.2,70.3,102.3c3.5,2.7,7.2,5.1,10.9,7.4l84.1,40.9c-3.7-2.3-7.3-4.7-10.9-7.4
						c-32-24-53.1-61.2-70.3-102.3L1483.3,369.1"/>
					<path class="st2" d="M1429.1,226.9c11,24,20.4,50.5,30,77.6c7.7,21.7,15.5,43.7,24.3,64.7l84.1,40.9c-8.8-21-16.6-43-24.3-64.7
						c-9.6-27.1-19-53.6-30-77.6L1429.1,226.9"/>
					<path d="M1438.4,179.1c34.4,16.7,56.6,49.3,74.7,88.7l-84.1-40.9c-18-39.5-40.4-72-74.7-88.7L1438.4,179.1"/>
					<path d="M1732.6,560.6c3.8,2.3,7.7,4.4,11.6,6.3l-84-40.9c-3.9-1.9-7.8-4-11.6-6.3L1732.6,560.6"/>
					<path class="st2" d="M1567.4,410.1c17.2,41.1,38.3,78.2,70.3,102.3c3.5,2.7,7.2,5.1,10.9,7.4l84,40.9
						c-3.7-2.3-7.3-4.7-10.9-7.4c-32-24-53.1-61.2-70.3-102.3L1567.4,410.1"/>
					<path d="M1513.2,267.7c11,24,20.4,50.5,30,77.6c7.7,21.7,15.5,43.7,24.3,64.7l84,40.9c-8.8-21-16.6-43-24.3-64.7
						c-9.6-27.1-19-53.6-30-77.6L1513.2,267.7"/>
					<path class="st2" d="M1522.5,219.9c34.4,16.7,56.6,49.3,74.7,88.7l-84-40.9c-18-39.5-40.4-72-74.7-88.7L1522.5,219.9"/>
					<path class="st2" d="M1768.9,578.2l-36.3-17.7c3.8,2.3,7.7,4.4,11.6,6.3l24.7,12L1768.9,578.2L1768.9,578.2z"/>
					<path d="M1768.9,555c-13.2-18.8-23.9-40.4-33.5-63.2l-84-40.9c17.2,41.1,38.3,78.2,70.3,102.3c3.5,2.7,7.2,5.1,10.9,7.4
						l36.3,17.7L1768.9,555L1768.9,555z"/>
					<path class="st2" d="M1597.2,308.6c11,24,20.4,50.5,30,77.6c7.7,21.7,15.5,43.7,24.3,64.7l84,40.9c-8.8-21-16.6-43-24.3-64.7
						c-9.6-27.1-19-53.6-30-77.6L1597.2,308.6"/>
					<path d="M1606.5,260.8c34.4,16.7,56.6,49.3,74.7,88.7l-84-40.9c-18-39.5-40.4-72-74.7-88.7L1606.5,260.8"/>
					<path class="st2" d="M1768.9,508.1l-33.5-16.3c9.6,22.8,20.3,44.3,33.5,63.2V508.1z"/>
					<path d="M1768.9,398.9c-1.2-2.8-2.4-5.7-3.7-8.5l-84-40.9c11,24,20.4,50.5,30,77.6c7.7,21.7,15.5,43.7,24.3,64.7l33.5,16.3
						L1768.9,398.9L1768.9,398.9z"/>
					<path class="st2" d="M1690.6,301.7c34.4,16.7,56.6,49.3,74.7,88.7l-84-40.9c-18-39.5-40.4-72-74.7-88.7L1690.6,301.7"/>
					<path d="M1768.9,339.8l-78.3-38.1c34.4,16.7,56.6,49.3,74.7,88.7l3.7,1.8L1768.9,339.8L1768.9,339.8z"/>
				</g>
				<path class="st3" d="M1768.9,339.8L1103.7,16.2c55.2,26.9,79.3,94.8,104.6,166.3c22.7,64.2,46.3,130.7,94.6,167
					c7.2,5.4,14.7,10,22.4,13.8L1768.9,579V339.8L1768.9,339.8z"/>

					<linearGradient id="SVGID_00000041991409357238285460000016746996730691134911_" gradientUnits="userSpaceOnUse" x1="1228.4816" y1="-4015.8064" x2="1854.9504" y2="-3756.9866" gradientTransform="matrix(-8.489528e-02 0.9964 -0.9964 -8.489528e-02 -2235.4805 -1703.5212)">
					<stop  offset="0" style="stop-color:#FFFFFF"/>
					<stop  offset="5.000000e-02" style="stop-color:#D1D1D1"/>
					<stop  offset="0.12" style="stop-color:#9A9A9A"/>
					<stop  offset="0.19" style="stop-color:#6B6B6B"/>
					<stop  offset="0.26" style="stop-color:#444444"/>
					<stop  offset="0.33" style="stop-color:#262626"/>
					<stop  offset="0.4" style="stop-color:#111111"/>
					<stop  offset="0.47" style="stop-color:#040404"/>
					<stop  offset="0.53" style="stop-color:#000000"/>
					<stop  offset="1" style="stop-color:#FFFFFF"/>
				</linearGradient>

					<path style="opacity:0.9;fill:url(#SVGID_00000041991409357238285460000016746996730691134911_);enable-background:new    ;" d="
					M1768.9,339.8L1103.7,16.2c15.1,7.4,27.9,17.8,39,30.5c29.5,33.8,47.2,83.8,65.6,135.8c18.6,52.8,37.9,107,70.9,144.8
					c7.2,8.3,15.1,15.7,23.7,22.2c7.2,5.4,14.7,10,22.4,13.8L1768.9,579V339.8L1768.9,339.8z"/>
				<g>
					<path class="st2" d="M350.6,737.9c-41,11.5-84.2,12.7-121.4-5.3l-82.6-40.2c37.2,18.1,80.5,16.8,121.4,5.3L350.6,737.9"/>
					<path d="M459.5,682c-9.9,7.3-19.8,14-30.3,20.6c-23.3,14.6-50.4,27.4-78.6,35.3L268,697.7c28.2-7.9,55.3-20.7,78.6-35.3
						c10.5-6.5,20.4-13.3,30.3-20.6L459.5,682"/>
					<path class="st2" d="M540.4,608.3c-31.6,33.2-56.1,55.3-81,73.7l-82.6-40.2c24.8-18.4,49.3-40.6,81-73.7L540.4,608.3"/>
					<path d="M664.6,469c-53.6,62.1-92.5,106.2-124.1,139.4l-82.6-40.2C489.6,535,528.4,491,582,428.8L664.6,469"/>
					<path class="st2" d="M804.2,306.4c-18,21-35,40.8-51,59.5c-33.5,39.1-62.8,73.2-88.6,103.1L582,428.8
						c25.8-29.9,55.1-64,88.6-103.1c16-18.6,33-38.4,51-59.5L804.2,306.4"/>
					<path d="M915.3,178.3c-10.1,11-19.8,22-29,32.6c-29.6,34.4-56.9,66.1-82.1,95.5l-82.6-40.2c25.2-29.3,52.5-61.1,82.1-95.5
						c9.1-10.6,18.8-21.6,29-32.6L915.3,178.3"/>
					<path class="st2" d="M1039,70.1c-44.5,27.4-87.1,68.2-123.7,108.2l-82.6-40.2c36.6-40,79.3-80.9,123.7-108.2
						C981.2,42,1014.3,58,1039,70.1"/>
					<path d="M1174,43.1c-0.6-0.2-1.1-0.4-1.7-0.5c-43.6-13.3-89.4,0.6-133.3,27.6c-24.8-12-57.8-28.1-82.6-40.2
						c43.9-27,89.6-40.8,133.3-27.6c0.6,0.2,1.1,0.4,1.7,0.5L1174,43.1"/>
					<path class="st2" d="M1189.3,49.2c-4.5-2-10.6-4.5-15.3-6.1l-82.6-40.2c5.3,1.7,10.5,3.8,15.3,6.1L1189.3,49.2"/>
					<path d="M434.6,778.8c-41,11.5-84.2,12.7-121.4-5.3l-84-40.9c37.2,18.1,80.5,16.8,121.4,5.3L434.6,778.8"/>
					<path class="st2" d="M459.5,682c-9.9,7.3-19.8,14-30.3,20.6c-23.3,14.6-50.4,27.4-78.6,35.3l84,40.9
						c28.2-7.9,55.3-20.7,78.6-35.3c10.5-6.5,20.4-13.3,30.3-20.6L459.5,682"/>
					<path d="M540.4,608.3c-31.6,33.2-56.1,55.3-81,73.7l84,40.9c24.8-18.4,49.3-40.6,81-73.7L540.4,608.3"/>
					<path class="st2" d="M664.6,469c-53.6,62.1-92.5,106.2-124.1,139.4l84,40.9C656.2,616,695,572,748.6,509.8L664.6,469"/>
					<path d="M804.2,306.4c-18,21-35,40.8-51,59.5c-33.5,39.1-62.8,73.2-88.6,103.1l84,40.9c25.8-29.9,55.1-64,88.6-103.1
						c16-18.6,33-38.4,51-59.5L804.2,306.4"/>
					<path class="st2" d="M915.3,178.3c-10.1,11-19.8,22-29,32.6c-29.6,34.4-56.9,66.1-82.1,95.5l84,40.9
						c25.2-29.3,52.5-61.1,82.1-95.5c9.1-10.6,18.8-21.6,29-32.6L915.3,178.3"/>
					<path d="M1039,70.1c-44.5,27.4-87.1,68.2-123.7,108.2l84,40.9c36.6-40,79.3-80.9,123.7-108.2L1039,70.1"/>
					<path class="st2" d="M1174,43.1c-0.6-0.2-1.1-0.4-1.7-0.5c-43.6-13.3-89.4,0.6-133.3,27.6l84,40.9
						c43.9-27,89.6-40.8,133.3-27.6c0.6,0.2,1.1,0.4,1.7,0.5L1174,43.1"/>
					<path d="M1273.3,90.1c-4.5-2-10.6-4.5-15.3-6.1l-84-40.9c4.6,1.7,10.8,4.1,15.3,6.1L1273.3,90.1"/>
					<path class="st2" d="M518.7,819.6c-41,11.5-84.2,12.7-121.4-5.3l-84-40.9c37.2,18.1,80.5,16.8,121.4,5.3L518.7,819.6"/>
					<path d="M543.6,722.9c-9.9,7.3-19.8,14-30.3,20.6c-23.3,14.6-50.4,27.4-78.6,35.3l84,40.9c28.2-7.9,55.3-20.7,78.6-35.3
						c10.5-6.5,20.4-13.3,30.3-20.6L543.6,722.9"/>
					<path class="st2" d="M624.5,649.2c-31.6,33.2-56.1,55.3-81,73.7l84,40.9c24.8-18.4,49.3-40.6,81-73.7L624.5,649.2"/>
					<path d="M748.6,509.9C695,572,656.2,616.1,624.5,649.2l84,40.9c31.6-33.2,70.5-77.2,124.1-139.4L748.6,509.9"/>
					<path class="st2" d="M888.2,347.3c-18,21-35,40.8-51,59.5c-33.5,39.1-62.8,73.2-88.6,103.1l84,40.9
						c25.8-29.9,55.1-64,88.6-103.1c16-18.6,33-38.4,51-59.5L888.2,347.3"/>
					<path d="M999.3,219.2c-10.1,11-19.8,22-29,32.6c-29.6,34.4-56.9,66.1-82.1,95.5l84,40.9c25.2-29.3,52.5-61.1,82.1-95.5
						c9.1-10.6,18.8-21.6,29-32.6L999.3,219.2"/>
					<path class="st2" d="M1123,111c-44.5,27.4-87.1,68.2-123.7,108.2l84,40.9c36.6-40,79.3-80.9,123.7-108.2L1123,111"/>
					<path d="M1258,84c-0.6-0.2-1.1-0.4-1.7-0.5c-43.6-13.3-89.4,0.6-133.3,27.6l84,40.9c43.9-27,89.6-40.8,133.3-27.6
						c0.6,0.2,1.1,0.4,1.7,0.5L1258,84"/>
					<path class="st2" d="M1357.4,131c-4.9-2.4-10-4.4-15.3-6.1L1258,84c4.6,1.7,10.8,4.1,15.3,6.1L1357.4,131"/>
					<path d="M602.8,860.5c-41,11.5-84.2,12.7-121.4-5.3l-84.1-40.9c37.2,18.1,80.5,16.8,121.4,5.3L602.8,860.5"/>
					<path class="st2" d="M627.6,763.8c-9.9,7.3-19.8,14-30.3,20.6c-23.3,14.6-50.4,27.4-78.6,35.3l84.1,40.9
						c28.2-7.9,55.3-20.7,78.6-35.3c10.5-6.5,20.4-13.3,30.3-20.6L627.6,763.8"/>
					<path d="M708.5,690.1c-31.6,33.2-56.1,55.3-81,73.7l84.1,40.9c24.8-18.4,49.3-40.6,81-73.7L708.5,690.1"/>
					<path class="st2" d="M832.7,550.7c-53.6,62.1-92.5,106.2-124.1,139.4l84.1,40.9c31.6-33.2,70.5-77.2,124.1-139.4L832.7,550.7"
						/>
					<path d="M972.3,388.1c-18,21-35,40.8-51,59.5c-33.5,39.1-62.8,73.2-88.6,103.1l84.1,40.9c25.8-29.9,55.1-64,88.6-103.1
						c16-18.6,33-38.4,51-59.5L972.3,388.1"/>
					<path class="st2" d="M1083.3,260.1c-10.1,11-19.8,22-29,32.6c-29.6,34.4-56.9,66.1-82.1,95.5l84.1,40.9
						c25.2-29.3,52.5-61.1,82.1-95.5c9.1-10.6,18.8-21.6,29-32.6L1083.3,260.1"/>
					<path d="M1207.1,151.8c-44.5,27.4-87.1,68.2-123.7,108.2l84.1,40.9c36.6-40,79.3-80.9,123.7-108.2L1207.1,151.8"/>
					<path class="st2" d="M1342,124.8c-0.6-0.2-1.1-0.4-1.7-0.5c-43.6-13.3-89.4,0.6-133.3,27.6l84.1,40.9
						c43.9-27,89.6-40.8,133.3-27.6c0.6,0.2,1.1,0.4,1.7,0.5L1342,124.8"/>
					<path d="M1441.5,171.9c-4.9-2.4-10-4.4-15.3-6.1l-84.1-40.9c5.3,1.7,10.5,3.8,15.3,6.1L1441.5,171.9"/>
					<path class="st2" d="M686.8,901.4c-41,11.5-84.2,12.7-121.4-5.3l-84-40.9c37.2,18.1,80.5,16.8,121.4,5.3L686.8,901.4"/>
					<path d="M711.7,804.7c-9.9,7.3-19.8,14-30.3,20.6c-23.3,14.6-50.4,27.4-78.6,35.3l84,40.9c28.2-7.9,55.3-20.7,78.6-35.3
						c10.5-6.5,20.4-13.3,30.3-20.6L711.7,804.7"/>
					<path class="st2" d="M792.6,731c-31.6,33.2-56.1,55.3-81,73.7l84,40.9c24.8-18.4,49.3-40.6,81-73.7L792.6,731"/>
					<path d="M916.8,591.6c-53.6,62.1-92.5,106.2-124.1,139.4l84,40.9c31.6-33.2,70.5-77.2,124.1-139.4L916.8,591.6"/>
					<path class="st2" d="M1056.4,429.1c-18,21-35,40.8-51,59.5c-33.5,39.1-62.8,73.2-88.6,103.1l84,40.9
						c25.8-29.9,55.1-64,88.6-103.1c16-18.6,33-38.4,51-59.5L1056.4,429.1"/>
					<path d="M1167.4,301c-10.1,11-19.8,22-29,32.6c-29.6,34.4-56.9,66.1-82.1,95.5l84,40.9c25.2-29.3,52.5-61.1,82.1-95.5
						c9.1-10.6,18.8-21.6,29-32.6L1167.4,301"/>
					<path class="st2" d="M1291.2,192.8c-44.5,27.4-87.1,68.2-123.7,108.2l84,40.9c36.6-40,79.3-80.9,123.7-108.2L1291.2,192.8"/>
					<path d="M1426.1,165.8c-0.6-0.2-1.1-0.4-1.7-0.5c-43.6-13.3-89.4,0.6-133.3,27.6l84,40.9c43.9-27,89.6-40.8,133.3-27.6
						c0.6,0.2,1.1,0.4,1.7,0.5L1426.1,165.8"/>
					<path class="st2" d="M1525.5,212.8c-4.9-2.4-10-4.4-15.3-6.1l-84-40.9c5.3,1.7,10.5,3.8,15.3,6.1L1525.5,212.8"/>
					<path d="M770.9,942.3c-41,11.5-84.2,12.7-121.4-5.3l-84-40.9c37.2,18.1,80.5,16.8,121.4,5.3L770.9,942.3"/>
					<path class="st2" d="M795.7,845.6c-9.9,7.3-19.8,14-30.3,20.6c-23.3,14.6-50.4,27.4-78.6,35.3l84,40.9
						c28.2-7.9,55.3-20.7,78.6-35.3c10.5-6.5,20.4-13.3,30.3-20.6L795.7,845.6"/>
					<path d="M876.7,771.9c-31.6,33.2-56.1,55.3-81,73.7l84,40.9c24.8-18.4,49.3-40.6,81-73.7L876.7,771.9"/>
					<path class="st2" d="M1000.8,632.5c-53.6,62.1-92.5,106.2-124.1,139.4l84,40.9c31.6-33.2,70.5-77.2,124.1-139.4L1000.8,632.5"
						/>
					<path d="M1140.4,470c-18,21-35,40.8-51,59.5c-33.5,39.1-62.8,73.2-88.6,103.1l84,40.9c25.8-29.9,55.1-64,88.6-103.1
						c16-18.6,33-38.4,51-59.5L1140.4,470"/>
					<path class="st2" d="M1251.5,341.8c-10.1,11-19.8,22-29,32.6c-29.6,34.4-56.9,66.1-82.1,95.5l84,40.9
						c25.2-29.3,52.5-61.1,82.1-95.5c9.1-10.6,18.8-21.6,29-32.6L1251.5,341.8"/>
					<path d="M1375.2,233.7c-44.5,27.4-87.1,68.2-123.7,108.2l84,40.9c36.6-40,79.3-80.9,123.7-108.2L1375.2,233.7"/>
					<path class="st2" d="M1510.2,206.6c-0.6-0.2-1.1-0.4-1.7-0.5c-43.6-13.3-89.4,0.6-133.3,27.6l84,40.9
						c43.9-27,89.6-40.8,133.3-27.6c0.6,0.2,1.1,0.4,1.7,0.5L1510.2,206.6"/>
					<path d="M1609.5,253.7c-4.9-2.4-10-4.4-15.3-6.1l-84-40.9c5.3,1.7,10.5,3.8,15.3,6.1L1609.5,253.7"/>
					<path class="st2" d="M854.9,983.2c-41,11.5-84.2,12.7-121.4-5.3l-84-40.9c37.2,18.1,80.5,16.8,121.4,5.3L854.9,983.2"/>
					<path d="M879.8,886.5c-9.9,7.3-19.8,14-30.3,20.6c-23.3,14.6-50.4,27.4-78.6,35.3l84,40.9c28.2-7.9,55.3-20.7,78.6-35.3
						c10.5-6.5,20.4-13.3,30.3-20.6L879.8,886.5"/>
					<path class="st2" d="M960.7,812.8c-31.6,33.2-56.1,55.3-81,73.7l84,40.9c24.8-18.4,49.3-40.6,81-73.7L960.7,812.8"/>
					<path d="M1084.8,673.4c-53.6,62.1-92.5,106.2-124.1,139.4l84,40.9c31.6-33.2,70.5-77.2,124.1-139.4L1084.8,673.4"/>
					<path class="st2" d="M1224.5,510.8c-18,21-35,40.8-51,59.5c-33.5,39.1-62.8,73.2-88.6,103.1l84,40.9
						c25.8-29.9,55.1-64,88.6-103.1c16-18.6,33-38.4,51-59.5L1224.5,510.8"/>
					<path d="M1335.5,382.8c-10.1,11-19.8,22-29,32.6c-29.6,34.4-56.9,66.1-82.1,95.5l84,40.9c25.2-29.3,52.5-61.1,82.1-95.5
						c9.1-10.6,18.8-21.6,29-32.6L1335.5,382.8"/>
					<path class="st2" d="M1459.2,274.5c-44.5,27.4-87.1,68.2-123.7,108.2l84,40.9c36.6-40,79.3-80.9,123.7-108.2L1459.2,274.5"/>
					<path d="M1594.2,247.5c-0.6-0.2-1.1-0.4-1.7-0.5c-43.6-13.3-89.4,0.6-133.3,27.6l84,40.9c43.9-27,89.6-40.8,133.3-27.6
						c0.6,0.2,1.1,0.4,1.7,0.5L1594.2,247.5"/>
					<path class="st2" d="M1693.6,294.5c-4.9-2.4-10-4.4-15.3-6.1l-84-40.9c5.3,1.7,10.5,3.8,15.3,6.1L1693.6,294.5"/>
					<path d="M938.9,1024.1c-49.8,12.7-83.8,11.2-121.4-5.3l-84-40.9c37.2,18.1,80.5,16.8,121.4,5.3L938.9,1024.1"/>
					<path class="st2" d="M963.8,927.3c-9.9,7.3-19.8,14-30.3,20.6c-23.3,14.6-50.4,27.4-78.6,35.3l84,40.9
						c28.2-7.9,55.3-20.7,78.6-35.3c10.5-6.5,20.4-13.3,30.3-20.6L963.8,927.3"/>
					<path d="M1044.7,853.6c-31.6,33.2-56.1,55.3-81,73.7l84,40.9c24.8-18.4,49.3-40.6,81-73.7L1044.7,853.6"/>
					<path class="st2" d="M1168.9,714.3c-53.6,62.1-92.5,106.2-124.1,139.4l84,40.9c31.6-33.2,70.5-77.2,124.1-139.4L1168.9,714.3"
						/>
					<path d="M1308.5,551.7c-18,21-35,40.8-51,59.5c-33.5,39.1-62.8,73.2-88.6,103.1l84,40.9c25.8-29.9,55.1-64,88.6-103.1
						c16-18.6,33-38.4,51-59.5L1308.5,551.7"/>
					<path class="st2" d="M1419.5,423.6c-10.1,11-19.8,22-29,32.6c-29.6,34.4-56.9,66.1-82.1,95.5l84,40.9
						c25.2-29.3,52.5-61.1,82.1-95.5c9.1-10.6,18.8-21.6,29-32.6L1419.5,423.6"/>
					<path d="M1543.3,315.4c-44.5,27.4-87.1,68.2-123.7,108.2l84,40.9c36.6-40,79.3-80.9,123.7-108.2L1543.3,315.4"/>
					<path class="st2" d="M1678.3,288.4c-0.6-0.2-1.1-0.4-1.7-0.5c-43.6-13.3-89.4,0.6-133.3,27.6l84,40.9
						c43.9-27,89.6-40.8,133.3-27.6c0.6,0.2,1.1,0.4,1.7,0.5L1678.3,288.4"/>
					<path d="M1768.9,331.2l-75.3-36.7c-4.9-2.4-10-4.4-15.3-6.1l84,40.9c2,0.7,4.3,1.6,6.7,2.5L1768.9,331.2L1768.9,331.2z"/>
					<path class="st2" d="M1023,1065c-41,11.5-84.2,12.7-121.4-5.3l-84.1-40.9c38.3,16.6,72.4,18.1,121.4,5.3L1023,1065"/>
					<path d="M1047.9,968.3c-9.9,7.3-19.8,14-30.3,20.6c-23.3,14.6-50.4,27.4-78.6,35.3l84.1,40.9c28.2-7.9,55.3-20.7,78.6-35.3
						c10.5-6.5,20.4-13.3,30.3-20.6L1047.9,968.3"/>
					<path class="st2" d="M1128.8,894.5c-31.6,33.2-56.1,55.3-81,73.7l84.1,40.9c24.8-18.4,49.3-40.6,81-73.7L1128.8,894.5"/>
					<path d="M1252.9,755.2c-53.6,62.1-92.5,106.2-124.1,139.4l84.1,40.9c31.6-33.2,70.5-77.2,124.1-139.4L1252.9,755.2"/>
					<path class="st2" d="M1392.5,592.6c-18,21-35,40.8-51,59.5c-33.5,39.1-62.8,73.2-88.6,103.1l84.1,40.9
						c25.8-29.9,55.1-64,88.6-103.1c16-18.6,33-38.4,51-59.5L1392.5,592.6"/>
					<path d="M1503.6,464.5c-10.1,11-19.8,22-29,32.6c-29.6,34.4-56.9,66.1-82.1,95.5l84.1,40.9c25.2-29.3,52.5-61.1,82.1-95.5
						c9.1-10.6,18.8-21.6,29-32.6L1503.6,464.5"/>
					<path class="st2" d="M1627.3,356.3c-44.5,27.4-87.1,68.2-123.7,108.2l84.1,40.9c36.6-40,79.3-80.9,123.7-108.2L1627.3,356.3"/>
					<path d="M1768.9,332.5l-6.7-3.2l0,0c-0.6-0.2-1.1-0.4-1.7-0.5c-43.6-13.3-89.4,0.6-133.3,27.6l84.1,40.9
						c18.9-11.6,38.2-20.8,57.5-26.5L1768.9,332.5L1768.9,332.5z"/>
					<path d="M1107.1,1105.9c-41,11.5-84.2,12.7-121.4-5.3l-84-40.9c37.2,18.1,80.5,16.8,121.4,5.3L1107.1,1105.9"/>
					<path class="st2" d="M1132,1009.2c-9.9,7.3-19.8,14-30.3,20.6c-23.3,14.6-50.4,27.4-78.6,35.3l84,40.9
						c28.2-7.9,55.3-20.7,78.6-35.3c10.5-6.5,20.4-13.3,30.3-20.6L1132,1009.2"/>
					<path d="M1212.9,935.4c-31.6,33.2-56.1,55.3-81,73.7l84,40.9c24.8-18.4,49.3-40.6,81-73.7L1212.9,935.4"/>
					<path class="st2" d="M1337,796.1c-53.6,62.1-92.5,106.2-124.1,139.4l84,40.9c31.6-33.2,70.5-77.2,124.1-139.4L1337,796.1"/>
					<path d="M1476.6,633.5c-18,21-35,40.8-51,59.5c-33.5,39.1-62.8,73.2-88.6,103.1l84,40.9c25.8-29.9,55.1-64,88.6-103.1
						c16-18.6,33-38.4,51-59.5L1476.6,633.5"/>
					<path class="st2" d="M1587.7,505.4c-10.1,11-19.8,22-29,32.6c-29.6,34.4-56.9,66.1-82.1,95.5l84,40.9
						c25.2-29.3,52.5-61.1,82.1-95.5c9.1-10.6,18.8-21.6,29-32.6L1587.7,505.4"/>
					<path d="M1768.9,425.2l-57.5-28c-44.5,27.4-87.1,68.2-123.7,108.2l84,40.9c29.3-31.9,62.4-64.4,97.2-90.2V425.2z"/>
					<path class="st2" d="M1768.9,370.8c-19.3,5.6-38.6,14.8-57.5,26.5l57.5,28V370.8z"/>
					<path class="st2" d="M1191.1,1146.8c-41,11.5-84.2,12.7-121.4-5.3l-84-40.9c37.2,18.1,80.5,16.8,121.4,5.3L1191.1,1146.8"/>
					<path d="M1216,1050c-9.9,7.3-19.8,14-30.3,20.6c-23.3,14.6-50.4,27.4-78.6,35.3l84,40.9c28.2-7.9,55.3-20.7,78.6-35.3
						c10.5-6.5,20.4-13.3,30.3-20.6L1216,1050"/>
					<path class="st2" d="M1296.9,976.3c-31.6,33.2-56.1,55.3-81,73.7l84,40.9c24.8-18.4,49.3-40.6,81-73.7L1296.9,976.3"/>
					<path d="M1421.1,837c-53.6,62.1-92.5,106.2-124.1,139.4l84,40.9c31.6-33.2,70.5-77.2,124.1-139.4L1421.1,837"/>
					<path class="st2" d="M1560.7,674.4c-18,21-35,40.8-51,59.5c-33.5,39.1-62.8,73.2-88.6,103.1l84,40.9
						c25.8-29.9,55.1-64,88.6-103.1c16-18.6,33-38.4,51-59.5L1560.7,674.4"/>
					<path d="M1671.7,546.3c-10.1,11-19.8,22-29,32.6c-29.6,34.4-56.9,66.1-82.1,95.5l84,40.9c25.2-29.3,52.5-61.1,82.1-95.5
						c9.1-10.6,18.8-21.6,29-32.6L1671.7,546.3"/>
					<path class="st2" d="M1768.9,456.1c-34.8,25.7-67.9,58.2-97.2,90.2l84,40.9c4.3-4.7,8.7-9.4,13.2-14.1V456.1L1768.9,456.1z"/>
					<path d="M1226.4,1163.9l-35.4-17.2c-41,11.5-84.2,12.7-121.4-5.3l46.4,22.6L1226.4,1163.9L1226.4,1163.9z"/>
					<path class="st2" d="M1333.7,1163.9c7-3.7,13.7-7.6,20.1-11.6c10.5-6.5,20.4-13.3,30.3-20.6l-84-40.9l0,0
						c-9.9,7.3-19.8,14-30.3,20.6c-23.3,14.6-50.4,27.4-78.6,35.3l35.4,17.2H1333.7z"/>
					<path d="M1380.9,1017.2c-31.6,33.2-56.1,55.3-81,73.7l84,40.9c24.8-18.4,49.3-40.6,81-73.7L1380.9,1017.2"/>
					<path class="st2" d="M1505.1,877.9c-53.6,62.1-92.5,106.2-124.1,139.4l84,40.9c31.6-33.2,70.5-77.2,124.1-139.4L1505.1,877.9"
						/>
					<path d="M1644.7,715.3c-18,21-35,40.8-51,59.5c-33.5,39.1-62.8,73.2-88.6,103.1l84,40.9c25.8-29.9,55.1-64,88.6-103.1
						c16-18.6,33-38.4,51-59.5L1644.7,715.3"/>
					<path class="st2" d="M1768.9,593.6l-13.2-6.4l0,0c-10.1,11-19.8,22-29,32.6c-29.6,34.4-56.9,66.1-82.1,95.5l84,40.9
						c12.8-15,26.2-30.5,40.2-46.8L1768.9,593.6L1768.9,593.6z"/>
					<path d="M1768.9,573.1c-4.5,4.7-8.9,9.4-13.2,14.1l13.2,6.4V573.1z"/>
					<path d="M1450.1,1163.9l-66.1-32.1c-9.9,7.3-19.8,14-30.3,20.6c-6.4,4-13.2,7.9-20.1,11.6L1450.1,1163.9L1450.1,1163.9z"/>
					<path class="st2" d="M1479.5,1163.9c21.1-16.7,42.7-36.9,69.5-64.9l-84.1-40.9c-31.6,33.2-56.1,55.3-81,73.7l66.1,32.1
						L1479.5,1163.9L1479.5,1163.9z"/>
					<path d="M1589.1,918.7c-53.6,62.1-92.5,106.2-124.1,139.4l84.1,40.9c31.6-33.2,70.5-77.2,124.1-139.4L1589.1,918.7"/>
					<path class="st2" d="M1768.9,775.7l-40.2-19.5c-18,21-35,40.8-51,59.5c-33.5,39.1-62.8,73.2-88.6,103.1l84.1,40.9
						c25.8-29.9,55.1-64,88.6-103.1c2.3-2.7,4.7-5.5,7.2-8.3L1768.9,775.7L1768.9,775.7z"/>
					<path d="M1768.9,709.4c-14,16.2-27.4,31.8-40.2,46.8l40.2,19.5V709.4z"/>
					<path d="M1609.4,1163.9c7.5-7.4,15.4-15.3,23.7-24.1l-84-40.9c-26.8,28.1-48.5,48.3-69.5,64.9L1609.4,1163.9L1609.4,1163.9z"/>
					<path class="st2" d="M1673.2,959.6c-53.6,62.1-92.5,106.2-124.1,139.4l84,40.9c31.6-33.2,70.5-77.2,124.1-139.4L1673.2,959.6"
						/>
					<path d="M1768.9,848.2c-2.4,2.8-4.8,5.6-7.2,8.3c-33.5,39.1-62.8,73.2-88.6,103.1l84,40.9c3.8-4.4,7.7-8.9,11.7-13.6
						L1768.9,848.2L1768.9,848.2z"/>
					<path class="st2" d="M1682.6,1163.9l-49.5-24.1c-8.4,8.8-16.2,16.7-23.7,24.1H1682.6z"/>
					<path d="M1730.9,1163.9c11.6-12.5,24.2-26.4,38.1-42v-115.7l-11.7-5.7c-53.6,62.1-92.5,106.2-124.1,139.4l49.5,24.1
						L1730.9,1163.9L1730.9,1163.9z"/>
					<path class="st2" d="M1768.9,987c-4,4.6-7.9,9.1-11.7,13.6l11.7,5.7V987L1768.9,987z"/>
				</g>
				<g>
					<path class="st2" d="M214.6,733.4c3.4,1.9,7.8,4.4,11.2,6.1l-82.6-40.2c-3.8-1.9-7.6-3.9-11.2-6.1L214.6,733.4"/>
					<path d="M133.8,623.2c17.8,43.3,40,82.2,74.4,106.1c2.1,1.5,4.2,2.8,6.3,4.1L132,693.2c-2.2-1.3-4.3-2.7-6.3-4.1
						C91.2,665.3,69.1,626.3,51.2,583L133.8,623.2"/>
					<path class="st2" d="M80.6,479.6c10.5,23.8,19.4,49.9,28.6,76.6c7.8,22.5,15.6,45.2,24.5,66.9L51.2,583
						c-8.9-21.7-16.7-44.4-24.5-66.9c-9.2-26.7-18.2-52.8-28.6-76.6L80.6,479.6"/>
					<path d="M4.7,387.1c35.3,17.2,57.8,51.3,75.9,92.6L-2,439.5c-18.1-41.3-40.7-75.4-75.9-92.6C-53.1,359-20,375,4.7,387.1"/>
					<path d="M298.6,774.2c3.4,1.9,7.8,4.4,11.2,6.1l-84-40.9c-3.4-1.8-8-4.1-11.2-6.1L298.6,774.2"/>
					<path class="st2" d="M133.8,623.2c17.8,43.3,40,82.2,74.4,106.1c2.1,1.5,4.2,2.8,6.3,4.1l84,40.9c-2.2-1.3-4.3-2.7-6.3-4.1
						c-34.4-23.8-56.6-62.8-74.4-106.1L133.8,623.2"/>
					<path d="M80.6,479.6c10.5,23.8,19.4,49.9,28.6,76.6c7.8,22.5,15.6,45.2,24.5,66.9l84,40.9c-8.9-21.7-16.7-44.4-24.5-66.9
						c-9.2-26.7-18.2-52.8-28.6-76.6L80.6,479.6"/>
					<path class="st2" d="M88.8,428c35.3,17.2,57.8,51.3,75.9,92.6l-84-40.9c-18.2-41.3-40.7-75.4-76-92.6L88.8,428"/>
					<path class="st2" d="M382.6,815.1c3.7,2.3,7.4,4.3,11.2,6.1l-84-40.9c-3.4-1.8-8-4.1-11.2-6.1L382.6,815.1"/>
					<path d="M217.8,664c17.8,43.3,40,82.2,74.4,106.1c2.1,1.5,4.2,2.8,6.3,4.1l84,40.9c-2.2-1.3-4.3-2.7-6.3-4.1
						c-34.4-23.8-56.6-62.8-74.4-106.1L217.8,664"/>
					<path class="st2" d="M164.7,520.5c10.5,23.8,19.4,49.9,28.6,76.6c7.8,22.5,15.6,45.2,24.5,66.9l84,40.9
						c-8.9-21.7-16.7-44.4-24.5-66.9c-9.2-26.7-18.2-52.8-28.6-76.6L164.7,520.5"/>
					<path d="M172.8,468.9c35.3,17.2,57.8,51.3,75.9,92.6l-84-40.9c-18.1-41.3-40.7-75.4-75.9-92.6L172.8,468.9"/>
					<path d="M466.7,856.1c3.7,2.3,7.4,4.3,11.2,6.1l-84.1-40.9c-3.8-1.9-7.6-3.9-11.2-6.1L466.7,856.1"/>
					<path class="st2" d="M301.9,705c17.8,43.3,40,82.2,74.4,106.1c2.1,1.5,4.2,2.8,6.3,4.1l84.1,40.9c-2.2-1.3-4.3-2.7-6.3-4.1
						c-34.4-23.8-56.6-62.8-74.4-106.1L301.9,705"/>
					<path d="M248.7,561.4c10.5,23.8,19.4,49.9,28.6,76.6c7.8,22.5,15.6,45.2,24.5,66.9l84.1,40.9c-8.9-21.7-16.7-44.4-24.5-66.9
						c-9.2-26.7-18.2-52.8-28.6-76.6L248.7,561.4"/>
					<path class="st2" d="M256.9,509.8c35.3,17.2,57.8,51.3,75.9,92.6l-84.1-40.9c-18.1-41.3-40.7-75.4-75.9-92.6L256.9,509.8"/>
					<path class="st2" d="M550.8,896.9c3.7,2.3,7.4,4.3,11.2,6.1l-84-40.9c-3.8-1.9-7.6-3.9-11.2-6.1L550.8,896.9"/>
					<path d="M386,745.8c17.8,43.3,40,82.2,74.4,106.1c2.1,1.5,4.2,2.8,6.3,4.1l84,40.9c-2.2-1.3-4.3-2.7-6.3-4.1
						C510,868.9,487.8,830,470,786.7L386,745.8"/>
					<path class="st2" d="M332.8,602.3c10.5,23.8,19.4,49.9,28.6,76.6c7.8,22.5,15.6,45.2,24.5,66.9l84,40.9
						c-8.9-21.7-16.7-44.4-24.5-66.9c-9.2-26.7-18.2-52.8-28.6-76.6L332.8,602.3"/>
					<path d="M340.9,550.6c35.3,17.2,57.8,51.3,75.9,92.6l-84-40.9c-18.1-41.3-40.7-75.4-75.9-92.6L340.9,550.6"/>
					<path d="M634.8,937.8c3.7,2.3,7.4,4.3,11.2,6.1L562,903c-3.8-1.9-7.6-3.9-11.2-6.1L634.8,937.8"/>
					<path class="st2" d="M470,786.7c17.8,43.3,40,82.2,74.4,106.1c2.1,1.5,4.2,2.8,6.3,4.1l84,40.9c-2.2-1.3-4.3-2.7-6.3-4.1
						c-34.4-23.8-56.6-62.8-74.4-106.1L470,786.7"/>
					<path d="M416.9,643.2c10.5,23.8,19.4,49.9,28.6,76.6c7.8,22.5,15.6,45.2,24.5,66.9l84,40.9c-8.9-21.7-16.7-44.4-24.5-66.9
						c-9.2-26.7-18.2-52.8-28.6-76.6L416.9,643.2"/>
					<path class="st2" d="M425,591.5c35.3,17.2,57.8,51.3,75.9,92.6l-84-40.9c-18.1-41.3-40.7-75.4-75.9-92.6L425,591.5"/>
					<path class="st2" d="M718.9,978.7c3.7,2.3,7.4,4.3,11.2,6.1l-84-40.9c-3.8-1.9-7.6-3.9-11.2-6.1L718.9,978.7"/>
					<path d="M554.1,827.6c17.8,43.3,40,82.2,74.4,106.1c2.1,1.5,4.2,2.8,6.3,4.1l84,40.9c-2.2-1.3-4.3-2.7-6.3-4.1
						c-34.4-23.8-56.6-62.8-74.4-106.1L554.1,827.6"/>
					<path class="st2" d="M500.9,684.1c10.5,23.8,19.4,49.9,28.6,76.6c7.8,22.5,15.6,45.2,24.5,66.9l84,40.9
						c-8.9-21.7-16.8-44.4-24.5-66.9c-9.2-26.7-18.2-52.8-28.6-76.6L500.9,684.1"/>
					<path d="M509,632.4c35.3,17.2,57.8,51.3,75.9,92.6l-84-40.9c-18.1-41.3-40.7-75.4-75.9-92.6L509,632.4"/>
					<path d="M802.9,1019.6c3.7,2.3,7.4,4.3,11.2,6.1l-84-40.9c-3.8-1.9-7.6-3.9-11.2-6.1L802.9,1019.6"/>
					<path class="st2" d="M638.1,868.5c17.8,43.3,40,82.2,74.4,106.1c2.1,1.5,4.2,2.8,6.3,4.1l84,40.9c-2.2-1.3-4.3-2.7-6.3-4.1
						c-34.4-23.8-56.6-62.8-74.4-106.1L638.1,868.5"/>
					<path d="M584.9,725c10.5,23.8,19.4,49.9,28.6,76.6c7.8,22.5,15.6,45.2,24.5,66.9l84,40.9c-8.9-21.7-16.7-44.4-24.5-66.9
						c-9.2-26.7-18.2-52.8-28.6-76.6L584.9,725"/>
					<path class="st2" d="M593.1,673.3c35.3,17.2,57.8,51.3,75.9,92.6L585,725c-18.1-41.3-40.7-75.4-75.9-92.6L593.1,673.3"/>
					<path class="st2" d="M887,1060.5c3.7,2.3,7.4,4.3,11.2,6.1l-84.1-40.9c-3.8-1.9-7.6-3.9-11.2-6.1L887,1060.5"/>
					<path d="M722.1,909.4c17.8,43.3,40,82.2,74.4,106.1c2.1,1.5,4.2,2.8,6.3,4.1l84.1,40.9c-2.2-1.3-4.3-2.7-6.3-4.1
						c-34.4-23.8-56.6-62.8-74.4-106.1L722.1,909.4"/>
					<path class="st2" d="M669,765.9c10.5,23.8,19.4,49.9,28.6,76.6c7.8,22.5,15.6,45.2,24.5,66.9l84.1,40.9
						c-8.9-21.7-16.7-44.4-24.5-66.9c-9.2-26.7-18.2-52.8-28.6-76.6L669,765.9"/>
					<path d="M677.1,714.2c35.3,17.2,57.8,51.3,75.9,92.6l-84-40.9c-18.1-41.3-40.7-75.4-75.9-92.6L677.1,714.2"/>
					<path d="M971,1101.4c3.7,2.3,7.4,4.3,11.2,6.1l-84-40.9c-3.8-1.9-7.6-3.9-11.2-6.1L971,1101.4"/>
					<path class="st2" d="M806.2,950.3c17.8,43.3,40,82.2,74.4,106.1c2.1,1.5,4.2,2.8,6.3,4.1l84,40.9c-2.2-1.3-4.3-2.7-6.3-4.1
						c-34.4-23.8-56.6-62.8-74.4-106.1L806.2,950.3"/>
					<path d="M753.1,806.7c10.5,23.8,19.4,49.9,28.6,76.6c7.8,22.5,15.6,45.2,24.5,66.9l84,40.9c-8.9-21.7-16.7-44.4-24.5-66.9
						c-9.2-26.7-18.2-52.8-28.6-76.6L753.1,806.7"/>
					<path class="st2" d="M761.2,755.1c35.3,17.2,57.8,51.3,75.9,92.6l-84-40.9c-18.1-41.3-40.7-75.4-75.9-92.6L761.2,755.1"/>
					<path class="st2" d="M1055.1,1142.2c3.7,2.3,7.4,4.3,11.2,6.1l-84-40.9c-3.8-1.9-7.6-3.9-11.2-6.1L1055.1,1142.2"/>
					<path d="M890.3,991.2c17.8,43.3,40,82.2,74.4,106.1c2.1,1.5,4.2,2.8,6.3,4.1l84,40.9c-2.2-1.3-4.3-2.7-6.3-4.1
						c-34.4-23.8-56.6-62.8-74.4-106.1L890.3,991.2"/>
					<path class="st2" d="M837.1,847.6c10.5,23.8,19.4,49.9,28.6,76.6c7.8,22.5,15.6,45.2,24.5,66.9l84,40.9
						c-8.9-21.7-16.8-44.4-24.5-66.9c-9.2-26.7-18.2-52.8-28.6-76.6L837.1,847.6"/>
					<path d="M845.2,796c35.3,17.2,57.8,51.3,75.9,92.6l-84-40.9c-18.1-41.3-40.7-75.4-75.9-92.6L845.2,796"/>
					<path d="M1098.2,1163.9h1.4l-44.6-21.7c3.7,2.3,7.4,4.3,11.2,6.1L1098.2,1163.9L1098.2,1163.9z"/>
					<path class="st2" d="M1048.7,1138.1c2.1,1.5,4.2,2.8,6.3,4.1l44.6,21.7h14.9c-24.4-23.6-41.7-55.9-56.2-91l-84-40.9
						C992.1,1075.4,1014.2,1114.3,1048.7,1138.1L1048.7,1138.1z"/>
					<path d="M921.1,888.5c10.5,23.8,19.4,49.9,28.6,76.6c7.8,22.5,15.6,45.2,24.5,66.9l84,40.9c-8.9-21.7-16.7-44.4-24.5-66.9
						c-9.2-26.7-18.2-52.8-28.6-76.6L921.1,888.5"/>
					<path class="st2" d="M929.3,836.9c35.3,17.2,57.8,51.3,75.9,92.6l-84-40.9c-18.1-41.3-40.7-75.4-75.9-92.6L929.3,836.9"/>
					<path d="M1114.5,1163.9h52.5c-9.3-15.5-17.3-32.4-24.6-50.1l-84.1-40.9l0,0C1072.8,1108,1090.1,1140.3,1114.5,1163.9
						L1114.5,1163.9z"/>
					<path class="st2" d="M1005.2,929.4c10.5,23.8,19.4,49.9,28.6,76.6c7.8,22.5,15.6,45.2,24.5,66.9l84.1,40.9
						c-8.9-21.7-16.8-44.4-24.5-66.9c-9.2-26.7-18.2-52.8-28.6-76.6L1005.2,929.4"/>
					<path d="M1013.3,877.8c35.3,17.2,57.8,51.3,75.9,92.6l-84.1-40.9c-18.1-41.3-40.7-75.4-75.9-92.6L1013.3,877.8"/>
					<path class="st2" d="M1230.3,1163.9c-1.3-3.1-2.6-6.1-3.9-9.2l-84-40.9c7.3,17.7,15.3,34.6,24.6,50.1H1230.3L1230.3,1163.9z"/>
					<path d="M1089.3,970.3c10.5,23.8,19.4,49.9,28.6,76.6c7.8,22.5,15.6,45.2,24.5,66.9l84,40.9c-8.9-21.7-16.7-44.4-24.5-66.9
						c-9.2-26.7-18.2-52.8-28.6-76.6L1089.3,970.3"/>
					<path class="st2" d="M1097.4,918.6c35.3,17.2,57.8,51.3,75.9,92.6l-84-40.9c-18.1-41.3-40.7-75.4-75.9-92.6L1097.4,918.6"/>
					<path d="M1245.4,1163.9l-18.9-9.2c1.3,3.1,2.6,6.2,3.9,9.2H1245.4L1245.4,1163.9z"/>
					<path class="st2" d="M1226.5,1154.7l18.9,9.2h51.7c-4.3-11.9-8.5-24-12.6-36c-9.2-26.7-18.2-52.8-28.6-76.6l-82.6-40.2
						c10.5,23.8,19.4,49.9,28.6,76.6C1209.7,1110.3,1217.5,1133.1,1226.5,1154.7L1226.5,1154.7z"/>
					<path d="M1180,958.8c35.3,17.2,57.8,51.3,75.9,92.6l-82.6-40.2c-18.1-41.3-40.7-75.4-75.9-92.6
						C1122.2,930.7,1155.2,946.8,1180,958.8"/>
				</g>
				<path class="st3" d="M1730.9,1163.9c11.6-12.5,24.2-26.4,38.1-42V331.2L1106.7,9.1c-5.4-2.6-11-4.8-17-6.7
					C989.6-28,878.5,83.9,803.8,170.8C753,229.8,709,281,670.6,325.7C470.2,559.4,422.5,615,346.7,662.5
					c-57.2,35.8-137.3,60.5-200.1,29.9L1116,1164L1730.9,1163.9L1730.9,1163.9z"/>

					<linearGradient id="SVGID_00000033330464720124883270000005437345280202121093_" gradientUnits="userSpaceOnUse" x1="1842.8445" y1="-3648.8181" x2="2636.8892" y2="-3248.822" gradientTransform="matrix(-8.489528e-02 0.9964 -0.9964 -8.489528e-02 -2235.4805 -1703.5212)">
					<stop  offset="0" style="stop-color:#FFFFFF"/>
					<stop  offset="5.000000e-02" style="stop-color:#D1D1D1"/>
					<stop  offset="0.12" style="stop-color:#9A9A9A"/>
					<stop  offset="0.19" style="stop-color:#6B6B6B"/>
					<stop  offset="0.26" style="stop-color:#444444"/>
					<stop  offset="0.33" style="stop-color:#262626"/>
					<stop  offset="0.4" style="stop-color:#111111"/>
					<stop  offset="0.47" style="stop-color:#040404"/>
					<stop  offset="0.53" style="stop-color:#000000"/>
					<stop  offset="1" style="stop-color:#FFFFFF"/>
				</linearGradient>

					<path style="opacity:0.5;fill:url(#SVGID_00000033330464720124883270000005437345280202121093_);enable-background:new    ;" d="
					M1730.9,1163.9c11.6-12.5,24.2-26.4,38.1-42V331.2L1106.7,9.1c-5.4-2.6-11-4.8-17-6.7C989.6-28,878.5,83.9,803.8,170.8
					C753,229.8,709,281,670.6,325.7C470.2,559.4,422.5,615,346.7,662.5c-57.2,35.8-137.3,60.5-200.1,29.9L1116,1164L1730.9,1163.9
					L1730.9,1163.9z"/>
				<path class="st3" d="M26.7,516.1c23.2,67.5,47.2,137.2,98.9,173c5.7,3.9,11.5,7.4,17.6,10.3l955.1,464.6h198.9
					c-4.3-11.9-8.5-24-12.6-36c-25.1-72.9-48.9-142.1-104.5-169.1l-1258-612C-22.2,374,1.6,443.2,26.7,516.1z"/>

					<linearGradient id="SVGID_00000026141664353934225830000017023986315093314985_" gradientUnits="userSpaceOnUse" x1="1835.4896" y1="-3150.1633" x2="2535.418" y2="-2950.1899" gradientTransform="matrix(-8.489528e-02 0.9964 -0.9964 -8.489528e-02 -2235.4805 -1703.5212)">
					<stop  offset="0" style="stop-color:#FFFFFF"/>
					<stop  offset="5.000000e-02" style="stop-color:#D1D1D1"/>
					<stop  offset="0.12" style="stop-color:#9A9A9A"/>
					<stop  offset="0.19" style="stop-color:#6B6B6B"/>
					<stop  offset="0.26" style="stop-color:#444444"/>
					<stop  offset="0.33" style="stop-color:#262626"/>
					<stop  offset="0.4" style="stop-color:#111111"/>
					<stop  offset="0.47" style="stop-color:#040404"/>
					<stop  offset="0.53" style="stop-color:#000000"/>
					<stop  offset="1" style="stop-color:#FFFFFF"/>
				</linearGradient>

					<path style="opacity:0.9;fill:url(#SVGID_00000026141664353934225830000017023986315093314985_);enable-background:new    ;" d="
					M-39.3,377.1c29.9,34.3,47.6,85.7,66,139c18.6,54.2,37.8,109.8,71.4,148.2c8.2,9.4,17.3,17.8,27.5,24.8
					c5.7,3.9,11.5,7.4,17.6,10.3l955.1,464.6h198.9c-4.3-11.9-8.5-24-12.6-36c-18.3-53.3-36-104.6-66-139
					c-11-12.6-23.6-22.9-38.6-30.2L-77.9,346.9C-62.9,354.2-50.3,364.5-39.3,377.1L-39.3,377.1z"/>
				<g>
					<path d="M-579,898.9v39c6.7-9.8,13.3-19.6,20-29.3l0,0L-579,898.9z"/>
					<path class="st2" d="M-546.8,734.8c-10.8,14.9-21.5,29.9-32.2,44.8v119.3l20,9.7c31.1-45,62.7-89.5,94.9-133.7L-546.8,734.8
						L-546.8,734.8z"/>
					<path d="M-365.7,643.1c-33.5,43.8-66.3,87.8-98.5,132l-82.6-40.2c32.2-44.2,65-88.1,98.5-132L-365.7,643.1"/>
					<path class="st2" d="M-263.8,514.1c-12.7,14.8-24.7,29.7-35.8,43.8c-22.3,28.4-44.3,56.8-66.1,85.1l-82.6-40.2
						c21.7-28.4,43.7-56.8,66.1-85.1c11.2-14.2,23.2-29,35.8-43.8L-263.8,514.1"/>
					<path d="M-142.6,401.7c-43.7,28.1-85.2,70.2-121.2,112.4l-82.6-40.2c36-42.1,77.5-84.2,121.2-112.4L-142.6,401.7"/>
					<path class="st2" d="M-8,373.7c-0.9-0.3-1.7-0.5-2.5-0.8c-44-12.8-89.1,1.2-132,28.8l-82.6-40.2c42.9-27.6,88-41.6,132-28.8
						c0.9,0.3,1.7,0.5,2.5,0.8L-8,373.7"/>
					<path d="M-579,1080.4v24.6c4-6.2,8.1-12.5,12.1-18.7L-579,1080.4z"/>
					<path class="st2" d="M-559,908.7L-559,908.7c-6.7,9.7-13.3,19.5-20,29.3v142.4l12.1,5.9c30.2-46.3,60.8-91.7,91.9-136.8
						L-559,908.7L-559,908.7z"/>
					<path d="M-464.2,775c-32.2,44.2-63.8,88.7-94.9,133.7l84,40.9c31.1-45,62.7-89.5,94.9-133.7L-464.2,775"/>
					<path class="st2" d="M-365.7,643.1c-33.5,43.8-66.3,87.8-98.5,132l84,40.9c32.2-44.2,65-88.1,98.5-132L-365.7,643.1"/>
					<path d="M-263.8,514.1c-12.7,14.8-24.7,29.7-35.8,43.8c-22.3,28.4-44.3,56.8-66.1,85.1l84,40.9c21.7-28.4,43.7-56.8,66.1-85.1
						c11.2-14.2,23.2-29,35.8-43.8L-263.8,514.1"/>
					<path class="st2" d="M-142.6,401.7c-43.7,28.1-85.2,70.2-121.2,112.4l84,40.9c36-42.1,77.5-84.2,121.2-112.4L-142.6,401.7"/>
					<path d="M-8,373.7c-0.9-0.3-1.7-0.5-2.5-0.8c-44-12.8-89.1,1.2-132,28.8l84,40.9c42.9-27.6,88-41.6,132-28.8
						c0.9,0.3,1.7,0.5,2.5,0.8L-8,373.7"/>
					<path class="st2" d="M-566.9,1086.3L-566.9,1086.3c-4,6.2-8.1,12.4-12.1,18.7v58.9h72.4c7.9-12.3,15.9-24.5,23.8-36.7
						L-566.9,1086.3L-566.9,1086.3z"/>
					<path d="M-475,949.6c-31.1,45-61.7,90.5-91.9,136.8l84,40.9c30.2-46.3,60.8-91.7,91.9-136.8L-475,949.6"/>
					<path class="st2" d="M-380.1,815.9c-32.2,44.2-63.8,88.7-94.9,133.7l84,40.9c31.1-45,62.7-89.5,94.9-133.7L-380.1,815.9"/>
					<path d="M-281.6,683.9c-33.5,43.8-66.3,87.8-98.5,132l84,40.9c32.2-44.2,65-88.1,98.5-132L-281.6,683.9"/>
					<path class="st2" d="M-179.7,555c-12.7,14.8-24.7,29.7-35.8,43.8c-22.3,28.4-44.3,56.8-66.1,85.1l84,40.9
						c21.7-28.4,43.7-56.8,66.1-85.1c11.2-14.2,23.2-29,35.8-43.8L-179.7,555"/>
					<path d="M-58.5,442.6c-43.7,28.1-85.2,70.2-121.2,112.4l84,40.9c36-42.1,77.5-84.2,121.2-112.4L-58.5,442.6"/>
					<path class="st2" d="M76,414.6c-0.9-0.3-1.7-0.5-2.5-0.8c-44-12.8-89.1,1.2-132,28.8l84,40.9c42.9-27.6,88-41.6,132-28.8
						c0.9,0.3,1.7,0.5,2.5,0.8L76,414.6"/>
					<path d="M-407.4,1163.9l-75.5-36.7c-8,12.2-15.9,24.4-23.8,36.7H-407.4L-407.4,1163.9z"/>
					<path class="st2" d="M-396,1163.9c29.3-44.8,59-88.9,89.2-132.6l-84.1-40.9c-31.1,45-61.7,90.5-91.9,136.8l75.5,36.7H-396
						L-396,1163.9z"/>
					<path d="M-296.1,856.8c-32.2,44.2-63.8,88.7-94.9,133.7l84.1,40.9c31.1-45,62.7-89.5,94.9-133.7L-296.1,856.8"/>
					<path class="st2" d="M-197.6,724.9c-33.5,43.8-66.3,87.8-98.5,132l84.1,40.9c32.2-44.2,65-88.1,98.5-132L-197.6,724.9"/>
					<path d="M-95.7,595.8c-12.7,14.8-24.7,29.7-35.8,43.8c-22.3,28.4-44.3,56.8-66.1,85.1l84.1,40.9c21.7-28.4,43.7-56.8,66.1-85.1
						c11.2-14.2,23.2-29,35.8-43.8L-95.7,595.8"/>
					<path class="st2" d="M25.5,483.5c-43.7,28.1-85.2,70.2-121.2,112.4l84.1,40.9c36-42.1,77.5-84.2,121.2-112.4L25.5,483.5"/>
					<path d="M160.1,455.5c-0.9-0.3-1.7-0.5-2.5-0.8c-44-12.8-89.1,1.2-132,28.8l84.1,40.9c42.9-27.6,88-41.6,132-28.8
						c0.9,0.3,1.7,0.5,2.5,0.8L160.1,455.5"/>
					<path d="M-284.9,1163.9c20.5-30.8,41.1-61.4,62.1-91.7l-84-40.9c-30.2,43.6-59.9,87.8-89.2,132.6H-284.9L-284.9,1163.9z"/>
					<path class="st2" d="M-212,897.7c-32.2,44.2-63.8,88.7-94.9,133.7l84,40.9c31.1-45,62.7-89.5,94.9-133.7L-212,897.7"/>
					<path d="M-113.5,765.8c-33.5,43.8-66.3,87.8-98.5,132l84,40.9c32.2-44.2,65-88.1,98.5-132L-113.5,765.8"/>
					<path class="st2" d="M-11.6,636.7c-12.7,14.8-24.7,29.7-35.8,43.8c-22.3,28.4-44.3,56.8-66.1,85.1l84,40.9
						c21.7-28.4,43.7-56.8,66.1-85.1c11.2-14.2,23.2-29,35.8-43.8L-11.6,636.7"/>
					<path d="M109.6,524.4c-43.7,28.1-85.2,70.2-121.2,112.4l84,40.9c36-42.1,77.5-84.2,121.2-112.4L109.6,524.4"/>
					<path class="st2" d="M244.1,496.4c-0.9-0.3-1.7-0.5-2.5-0.8c-44-12.8-89.1,1.2-132,28.8l84,40.9c42.9-27.6,88-41.6,132-28.8
						c0.9,0.3,1.7,0.5,2.5,0.8L244.1,496.4"/>
					<path class="st2" d="M-173.4,1163.9c11.5-17,23-34,34.7-50.8l-84-40.9c-20.9,30.3-41.6,60.9-62.1,91.7L-173.4,1163.9
						L-173.4,1163.9z"/>
					<path d="M-127.9,938.6c-32.2,44.2-63.8,88.7-94.9,133.7l84,40.9c31.1-45,62.7-89.5,94.9-133.7L-127.9,938.6"/>
					<path class="st2" d="M-29.4,806.6c-33.5,43.8-66.3,87.8-98.5,132l84,40.9c32.2-44.2,65-88.1,98.5-132L-29.4,806.6"/>
					<path d="M72.4,677.6c-12.7,14.8-24.7,29.7-35.8,43.8c-22.3,28.4-44.3,56.8-66.1,85.1l84,40.9c21.7-28.4,43.7-56.8,66.1-85.1
						c11.2-14.2,23.2-29,35.8-43.8L72.4,677.6"/>
					<path class="st2" d="M193.7,565.3c-43.7,28.1-85.2,70.2-121.2,112.4l84,40.9c36-42.1,77.5-84.2,121.2-112.4L193.7,565.3"/>
					<path d="M328.2,537.2c-0.9-0.3-1.7-0.5-2.5-0.8c-44-12.8-89.1,1.3-132,28.8l84,40.9c42.9-27.6,88-41.6,132-28.8
						c0.9,0.3,1.7,0.5,2.5,0.8L328.2,537.2"/>
					<path d="M-61.5,1163.9c2.3-3.3,4.5-6.7,6.8-9.9l-84-40.9c-11.6,16.8-23.1,33.9-34.7,50.8H-61.5L-61.5,1163.9z"/>
					<path class="st2" d="M-43.9,979.4c-32.2,44.2-63.8,88.7-94.9,133.7l84,40.9c31.1-45,62.7-89.5,94.9-133.7L-43.9,979.4"/>
					<path d="M54.6,847.5c-33.5,43.8-66.3,87.8-98.5,132l84,40.9c32.2-44.2,65-88.1,98.5-132L54.6,847.5"/>
					<path class="st2" d="M156.5,718.5c-12.7,14.8-24.7,29.7-35.8,43.8c-22.3,28.4-44.3,56.8-66.1,85.1l84,40.9
						c21.7-28.4,43.7-56.8,66.1-85.1c11.2-14.2,23.2-29,35.8-43.8L156.5,718.5"/>
					<path d="M277.7,606.2c-43.7,28.1-85.2,70.2-121.2,112.4l84,40.9c36-42.1,77.5-84.2,121.2-112.4L277.7,606.2"/>
					<path class="st2" d="M412.2,578.1c-0.9-0.3-1.7-0.5-2.5-0.8c-44-12.8-89.1,1.2-132,28.8l84,40.9c42.9-27.6,88-41.6,132-28.8
						c0.9,0.3,1.7,0.5,2.5,0.8L412.2,578.1"/>
					<path class="st2" d="M-34.3,1163.9l-20.5-9.9c-2.3,3.3-4.5,6.7-6.8,9.9H-34.3L-34.3,1163.9z"/>
					<path d="M51,1163.9c24.1-34.5,48.4-68.7,73.2-102.7l-84-40.9l0,0C7.9,1064.5-23.6,1109-54.7,1154l20.5,9.9H51L51,1163.9z"/>
					<path class="st2" d="M138.6,888.4c-33.5,43.8-66.3,87.8-98.5,132l84,40.9c32.2-44.2,65-88.1,98.5-132L138.6,888.4"/>
					<path d="M240.5,759.4c-12.7,14.8-24.7,29.7-35.8,43.8c-22.3,28.4-44.3,56.8-66.1,85.1l84,40.9c21.7-28.4,43.7-56.8,66.1-85.1
						c11.2-14.2,23.2-29,35.8-43.8L240.5,759.4"/>
					<path class="st2" d="M361.7,647.1c-43.7,28.1-85.2,70.2-121.2,112.4l84,40.9c36-42.1,77.5-84.2,121.2-112.4L361.7,647.1"/>
					<path d="M496.3,619c-0.9-0.3-1.7-0.5-2.5-0.8c-44-12.8-89.1,1.3-132,28.8l84,40.9c42.9-27.6,88-41.6,132-28.8
						c0.9,0.3,1.7,0.5,2.5,0.8L496.3,619"/>
					<path class="st2" d="M163.8,1163.9c14.7-20.7,29.5-41.3,44.4-61.8l-84.1-40.9c-24.8,34-49.1,68.3-73.2,102.7L163.8,1163.9
						L163.8,1163.9z"/>
					<path d="M222.7,929.3c-33.5,43.8-66.3,87.8-98.5,132l84.1,40.9c32.2-44.2,65-88.1,98.5-132L222.7,929.3"/>
					<path class="st2" d="M324.6,800.3c-12.7,14.8-24.7,29.7-35.8,43.8c-22.3,28.4-44.3,56.8-66.1,85.1l84.1,40.9
						c21.7-28.4,43.7-56.8,66.1-85.1c11.2-14.2,23.2-29,35.8-43.8L324.6,800.3"/>
					<path d="M445.8,687.9C402,716,360.5,758.2,324.6,800.3l84.1,40.9c36-42.1,77.5-84.2,121.2-112.4L445.8,687.9"/>
					<path class="st2" d="M580.3,659.9c-0.9-0.3-1.7-0.5-2.5-0.8c-44-12.8-89.1,1.2-132,28.8l84.1,40.9c42.9-27.6,88-41.6,132-28.8
						c0.9,0.3,1.7,0.5,2.5,0.8L580.3,659.9"/>
					<path d="M163.8,1163.9h113.5c5-7,10-14,15.1-20.9l-84-40.9l0,0C193.3,1122.7,178.5,1143.3,163.8,1163.9L163.8,1163.9z"/>
					<path class="st2" d="M306.8,970.2c-33.5,43.8-66.3,87.8-98.5,132l84,40.9c32.2-44.2,65-88.1,98.5-132L306.8,970.2"/>
					<path d="M408.6,841.2C395.9,856,384,870.9,372.8,885c-22.3,28.4-44.3,56.8-66.1,85.1l84,40.9c21.7-28.4,43.7-56.8,66.1-85.1
						c11.2-14.2,23.2-29,35.8-43.8L408.6,841.2"/>
					<path class="st2" d="M529.9,728.8c-43.7,28.1-85.2,70.2-121.2,112.4l84,40.9c36-42.1,77.5-84.2,121.2-112.4L529.9,728.8"/>
					<path d="M664.4,700.8c-0.9-0.3-1.7-0.5-2.5-0.8c-44-12.8-89.1,1.2-132,28.8l84,40.9c42.9-27.6,88-41.6,132-28.8
						c0.9,0.3,1.7,0.5,2.5,0.8L664.4,700.8"/>
					<path class="st2" d="M335.3,1163.9l-43-20.9c-5,7-10,14-15.1,20.9H335.3L335.3,1163.9z"/>
					<path d="M335.3,1163.9h55.8c27.5-37.4,55.3-74.8,83.8-112l-84-40.9c-33.5,43.8-66.3,87.8-98.5,132L335.3,1163.9L335.3,1163.9z"
						/>
					<path class="st2" d="M492.7,882.1c-12.7,14.8-24.7,29.7-35.8,43.8c-22.3,28.4-44.3,56.8-66.1,85.1l84,40.9
						c21.7-28.4,43.7-56.8,66.1-85.1c11.2-14.2,23.2-29,35.8-43.8L492.7,882.1"/>
					<path d="M613.9,769.7c-43.7,28.1-85.2,70.2-121.2,112.4l84,40.9c36-42.1,77.5-84.2,121.2-112.4L613.9,769.7"/>
					<path class="st2" d="M748.4,741.7c-0.9-0.3-1.7-0.5-2.5-0.8c-44-12.8-89.1,1.3-132,28.8l84,40.9c42.9-27.6,88-41.6,132-28.8
						c0.9,0.3,1.7,0.5,2.5,0.8L748.4,741.7"/>
					<path class="st2" d="M505.3,1163.9c17.7-23.7,35.5-47.4,53.6-71.1l-84-40.9l0,0c-28.5,37.2-56.3,74.5-83.8,112H505.3
						L505.3,1163.9z"/>
					<path d="M576.7,923c-12.7,14.8-24.7,29.7-35.8,43.8c-22.3,28.4-44.3,56.8-66.1,85.1l84,40.9c21.7-28.4,43.7-56.8,66.1-85.1
						c11.2-14.2,23.2-29,35.8-43.8L576.7,923"/>
					<path class="st2" d="M697.9,810.6c-43.7,28.1-85.2,70.2-121.2,112.4l84,40.9c36-42.1,77.5-84.2,121.2-112.4L697.9,810.6"/>
					<path d="M832.5,782.6c-0.9-0.3-1.7-0.5-2.5-0.8c-44-12.8-89.1,1.2-132,28.8l84,40.9c42.9-27.6,88-41.6,132-28.8
						c0.9,0.3,1.7,0.5,2.5,0.8L832.5,782.6"/>
					<path d="M620.2,1163.9c7.6-10.1,15.1-20.2,22.8-30.2l-84.1-40.9c-18.1,23.7-35.9,47.4-53.6,71.1H620.2L620.2,1163.9z"/>
					<path class="st2" d="M660.8,963.8c-12.7,14.8-24.7,29.7-35.8,43.8c-22.3,28.4-44.3,56.8-66.1,85.1l84.1,40.9
						c21.7-28.4,43.7-56.8,66.1-85.1c11.2-14.2,23.2-29,35.8-43.8L660.8,963.8"/>
					<path d="M782,851.5c-43.7,28.1-85.2,70.2-121.2,112.4l84.1,40.9c36-42.1,77.5-84.2,121.2-112.4L782,851.5"/>
					<path class="st2" d="M916.5,823.5c-0.9-0.3-1.7-0.5-2.5-0.8c-44-12.8-89.1,1.2-132,28.8l84.1,40.9c42.9-27.6,88-41.6,132-28.8
						c0.9,0.3,1.7,0.5,2.5,0.8L916.5,823.5"/>
					<path class="st2" d="M705.1,1163.9l-62.1-30.2c-7.7,10-15.2,20.2-22.8,30.2H705.1L705.1,1163.9z"/>
					<path d="M735.2,1163.9c19-24.8,38.3-49.6,57.8-74.5c11.2-14.2,23.2-29,35.8-43.8l-84-40.9c-12.7,14.8-24.7,29.7-35.8,43.8
						c-22.3,28.4-44.3,56.8-66.1,85.1l62.1,30.2h30.2V1163.9z"/>
					<path class="st2" d="M866.1,892.4c-43.7,28.1-85.2,70.2-121.2,112.4l84,40.9c36-42.1,77.5-84.2,121.2-112.4L866.1,892.4"/>
					<path d="M1000.6,864.4c-0.9-0.3-1.7-0.5-2.5-0.8c-44-12.8-89.1,1.2-132,28.8l84,40.9c42.9-27.6,88-41.6,132-28.8
						c0.9,0.3,1.7,0.5,2.5,0.8L1000.6,864.4"/>
					<path class="st2" d="M848.8,1163.9c8.9-11.4,17.8-22.9,26.8-34.3c11.2-14.2,23.2-29,35.8-43.8l-82.6-40.2
						c-12.7,14.8-24.7,29.7-35.8,43.8c-19.5,24.8-38.8,49.6-57.8,74.5H848.8z"/>
					<path d="M1032.7,973.4c-43.7,28.1-85.2,70.2-121.2,112.4l-82.6-40.2c36-42.1,77.5-84.2,121.2-112.4L1032.7,973.4"/>
					<path class="st2" d="M1167.2,945.4c-0.9-0.3-1.7-0.5-2.5-0.8c-44-12.8-89.1,1.2-132,28.8l-82.6-40.2
						c42.9-27.6,88-41.6,132-28.8c0.9,0.3,1.7,0.5,2.5,0.8L1167.2,945.4"/>
				</g>
				<path class="st3" d="M-74.9,339.8c-5.7-2.8-11.8-5.1-18.2-7c-104.7-30.5-215.1,90.9-289.1,185c-68.5,87-133.8,173.7-196.8,261.8
					v384.3H848.9c8.9-11.4,17.8-22.9,26.8-34.3c73.9-94,184.3-215.5,289.1-185c6.4,1.9,12.5,4.2,18.2,7L-74.9,339.8z"/>

					<linearGradient id="SVGID_00000087377684508418585380000002731469234087669397_" gradientUnits="userSpaceOnUse" x1="2487.3618" y1="-2700.7114" x2="3628.4988" y2="-2336.0359" gradientTransform="matrix(-8.489528e-02 0.9964 -0.9964 -8.489528e-02 -2235.4805 -1703.5212)">
					<stop  offset="0" style="stop-color:#FFFFFF"/>
					<stop  offset="5.000000e-02" style="stop-color:#D1D1D1"/>
					<stop  offset="0.12" style="stop-color:#9A9A9A"/>
					<stop  offset="0.19" style="stop-color:#6B6B6B"/>
					<stop  offset="0.26" style="stop-color:#444444"/>
					<stop  offset="0.33" style="stop-color:#262626"/>
					<stop  offset="0.4" style="stop-color:#111111"/>
					<stop  offset="0.47" style="stop-color:#040404"/>
					<stop  offset="0.53" style="stop-color:#000000"/>
					<stop  offset="1" style="stop-color:#FFFFFF"/>
				</linearGradient>

					<path style="opacity:0.5;fill:url(#SVGID_00000087377684508418585380000002731469234087669397_);enable-background:new    ;" d="
					M-74.9,339.8c-5.7-2.8-11.8-5.1-18.2-7c-104.7-30.5-215.1,90.9-289.1,185c-68.5,87-133.8,173.7-196.8,261.8v384.3H848.9
					c8.9-11.4,17.8-22.9,26.8-34.3c73.9-94,184.3-215.5,289.1-185c6.4,1.9,12.5,4.2,18.2,7L-74.9,339.8z"/>
				<g>
					<path class="st9" d="M856.9,1163.9c7.8-9.9,15.5-19.9,23.3-29.8c72.6-92.3,180.7-211.5,281.9-182.2
						c68.7,20,94.8,95.8,122.5,176c4.1,12,8.3,24,12.6,36h7.6c-4.8-13.2-9.4-26.5-14-39.8c-27-78-54.7-158.8-126-179.5
						c-104.7-30.5-215.1,90.9-289.1,185c-9,11.4-17.9,22.9-26.8,34.3L856.9,1163.9L856.9,1163.9z"/>
					<path class="st9" d="M1739.6,1163.9c9.2-9.9,18.9-20.7,29.4-32.4v-9.6c-13.9,15.6-26.5,29.5-38.1,42H1739.6z"/>
				</g>
			</g>
		</g>
	</g>
</g>
<g id="truthin32bit">
	<g>
		<path class="st10" d="M49.2,344.7v-26.9h132v26.9H130V452h-29.6V344.7H49.2z"/>
		<path class="st10" d="M301.6,317.8c9.2,0,17.1,3.4,23.7,10.1s9.9,14.7,9.9,24V370c0,7.8-5.4,13.9-16.2,18.4
			c10.8,4.5,16.2,10.9,16.2,19.2V452H305v-44.2c0-1-0.4-1.9-1.3-2.7c-0.8-0.7-1.7-1.1-2.9-1.1h-70.1v48H201V317.8h29.7v6
			c5.7-4,12.1-6,19-6H301.6z M230.7,376.4h65.5c2.4,0,4.5-0.9,6.2-2.6s2.6-3.8,2.6-6.1v-12.3c0-2.4-0.9-4.4-2.6-6.1
			s-3.8-2.6-6.2-2.6h-65.5L230.7,376.4L230.7,376.4z"/>
		<path class="st10" d="M477.9,452h-29.7v-5.9c-5.7,4-12.1,5.9-19,5.9h-40.6c-9.2,0-17.1-3.3-23.7-9.9c-6.6-6.5-9.9-14.4-9.9-23.6
			V317.8h30.2v100.4c0,1,0.4,1.8,1.1,2.6c0.7,0.7,1.6,1.1,2.7,1.1h55c1,0,1.8-0.4,2.6-1.1c0.7-0.7,1.1-1.6,1.1-2.6V317.8h30.2
			L477.9,452L477.9,452z"/>
		<path class="st10" d="M497.6,344.7v-26.9h132v26.9h-51.2V452h-29.6V344.7H497.6L497.6,344.7z"/>
		<path class="st10" d="M743.2,317.8h29.7V452h-29.7v-55.6h-64V452h-29.7V317.8h29.7v55.6h64V317.8z"/>
		<path class="st10" d="M846.6,317.8h29.7V452h-29.7V317.8z"/>
		<path class="st10" d="M993,422.3h6c1.1,0,1.7-0.6,1.7-1.7V317.8h29.6v111.1c0,6.3-2.3,11.8-6.8,16.3c-4.5,4.5-9.9,6.8-16.3,6.8
			h-23.5c-10.1,0-17.8-7.7-23-23.1l-24.6-79.7c-0.7-1.1-1.6-1.7-2.7-1.7h-6c-1.1,0-1.7,0.6-1.7,1.7V452h-29.6V341
			c0-6.4,2.3-11.9,6.8-16.4s9.9-6.7,16.3-6.7h23.5c10.1,0,17.8,7.7,23,23.1l24.6,79.6C990.7,421.7,991.6,422.3,993,422.3L993,422.3z
			"/>
	</g>
	<g>
		<path class="st10" d="M214.3,502c17.8,0,33.1,6.5,45.9,19.5c12.7,12.9,19.1,28.3,19.1,46.4v20.4c0,16.6-5.5,31.1-16.4,43.6
			c11,12.5,16.4,27,16.4,43.6V696c0,18.1-6.4,33.6-19.1,46.4c-12.7,12.9-28,19.3-45.9,19.3H113.8c-16.7,0-31.3-5.7-43.8-17.2
			c-12.4-11.3-19.3-25.3-20.8-42h163.6c2.2,0,4-0.7,5.5-2.1c1.7-1.5,2.5-3.3,2.5-5.2V665c0-1.9-0.8-3.6-2.5-5
			c-1.5-1.5-3.4-2.3-5.5-2.3H83.4v-51.8h129.4c2.2,0,4-0.7,5.5-2.1c1.7-1.4,2.5-3.1,2.5-5.2v-30c0-2-0.8-3.8-2.5-5.2
			c-1.5-1.4-3.4-2.1-5.5-2.1H49.2c1.5-16.7,8.5-30.7,20.8-42c12.5-11.6,27.1-17.4,43.8-17.4L214.3,502L214.3,502z"/>
		<path class="st10" d="M378,655c-2.2,0-3.3,1.1-3.3,3.3v42.8c0,2.2,1.1,3.3,3.3,3.3h184v12.8c0,12.2-4.4,22.7-13.2,31.5
			c-8.7,8.7-19.2,13-31.5,13H362.2c-12.4,0-22.9-4.3-31.7-13c-8.7-8.8-13-19.3-13-31.5v-74.7c0-12.4,4.3-22.9,13-31.5
			c8.8-8.8,19.4-13.2,31.7-13.2h139.3c2,0,3.1-1.1,3.1-3.3v-31.7c0-2.2-1-3.3-3.1-3.3H324.7v-12.8c0-12.2,4.4-22.7,13.2-31.5
			c8.7-8.8,19.2-13.2,31.5-13.2h147.9c12.4,0,22.9,4.4,31.5,13.2c8.8,8.8,13.2,19.3,13.2,31.5v63.8c0,12.2-4.4,22.7-13.2,31.5
			c-8.7,8.7-19.2,13-31.5,13L378,655L378,655z"/>
		<path class="st10" d="M734.4,582.8c12.4,0,22.9,4.4,31.5,13.2c8.8,8.8,13.2,19.3,13.2,31.5V717c0,12.4-4.4,22.9-13.2,31.7
			c-8.7,8.7-19.2,13-31.5,13h-45.5c-12.1,0-22.5-4.2-31.1-12.6v12.6h-57.5V502h57.5v93.6c8.7-8.5,19-12.8,31.1-12.8H734.4z
			 M661,636.5c-2.2,0-3.3,1.1-3.3,3.3V705c0,2,1.1,3.1,3.3,3.1h57.5c2,0,3.1-1,3.1-3.1v-65.2c0-2.2-1-3.3-3.1-3.3H661z"/>
		<path class="st10" d="M871.2,505.8c7,6.9,10.5,15.3,10.5,25.2s-3.5,18.2-10.5,25.2c-6.9,6.9-15.3,10.3-25.2,10.3
			s-18.2-3.4-25.2-10.3c-6.9-7-10.3-15.4-10.3-25.2s3.4-18.3,10.3-25.2c7-7,15.4-10.5,25.2-10.5S864.3,498.8,871.2,505.8z
			 M874.8,761.7h-57.5V582.8h57.5V761.7L874.8,761.7z"/>
		<path class="st10" d="M911.1,582.8h31v-62.7l57.5-16.8v79.5h30.8v45.5h-30.8v133.4h-57.5V628.3h-31L911.1,582.8L911.1,582.8z"/>
	</g>
</g>
</svg>
